<mxfile host="app.diagrams.net" modified="2023-05-24T13:52:48.265Z" agent="Mozilla/5.0 (Macintosh; Intel Mac OS X 10_15_7) AppleWebKit/537.36 (KHTML, like Gecko) Chrome/113.0.0.0 Safari/537.36" etag="8QpJ20SA3DAvWvdUw0nR" version="21.2.9" type="github">
  <diagram name="ページ1" id="xfN9UBV0C2tQXgF8YeEa">
    <mxGraphModel dx="1887" dy="1765" grid="1" gridSize="10" guides="1" tooltips="1" connect="1" arrows="1" fold="1" page="1" pageScale="1" pageWidth="827" pageHeight="1169" math="0" shadow="0">
      <root>
        <mxCell id="0" />
        <mxCell id="1" parent="0" />
        <mxCell id="cY8kMOldSic-Vgdh4lLR-4" style="edgeStyle=orthogonalEdgeStyle;rounded=0;orthogonalLoop=1;jettySize=auto;html=1;exitDx=0;exitDy=0;entryX=0;entryY=0.5;entryDx=0;entryDy=0;entryPerimeter=0;" edge="1" parent="1" source="cY8kMOldSic-Vgdh4lLR-15" target="cY8kMOldSic-Vgdh4lLR-3">
          <mxGeometry relative="1" as="geometry" />
        </mxCell>
        <mxCell id="cY8kMOldSic-Vgdh4lLR-117" style="edgeStyle=orthogonalEdgeStyle;rounded=0;orthogonalLoop=1;jettySize=auto;html=1;endArrow=none;endFill=0;entryX=0.144;entryY=-0.006;entryDx=0;entryDy=0;entryPerimeter=0;" edge="1" parent="1" source="cY8kMOldSic-Vgdh4lLR-1" target="cY8kMOldSic-Vgdh4lLR-237">
          <mxGeometry relative="1" as="geometry">
            <mxPoint x="1020" y="-40" as="targetPoint" />
            <Array as="points">
              <mxPoint x="180" y="420" />
              <mxPoint x="181" y="420" />
              <mxPoint x="181" y="-40" />
              <mxPoint x="1020" y="-40" />
              <mxPoint x="1020" />
            </Array>
          </mxGeometry>
        </mxCell>
        <mxCell id="cY8kMOldSic-Vgdh4lLR-118" value="&lt;font style=&quot;font-size: 15px;&quot;&gt;pcwrite&lt;/font&gt;" style="edgeLabel;html=1;align=center;verticalAlign=middle;resizable=0;points=[];" vertex="1" connectable="0" parent="cY8kMOldSic-Vgdh4lLR-117">
          <mxGeometry x="-0.9178" y="-2" relative="1" as="geometry">
            <mxPoint as="offset" />
          </mxGeometry>
        </mxCell>
        <mxCell id="cY8kMOldSic-Vgdh4lLR-249" value="&lt;font style=&quot;font-size: 15px;&quot;&gt;pcwrite&lt;/font&gt;" style="edgeLabel;html=1;align=center;verticalAlign=middle;resizable=0;points=[];" vertex="1" connectable="0" parent="cY8kMOldSic-Vgdh4lLR-117">
          <mxGeometry x="0.8581" y="2" relative="1" as="geometry">
            <mxPoint y="1" as="offset" />
          </mxGeometry>
        </mxCell>
        <mxCell id="cY8kMOldSic-Vgdh4lLR-1" value="&lt;font style=&quot;font-size: 18px;&quot;&gt;PC&lt;/font&gt;" style="rounded=0;whiteSpace=wrap;html=1;" vertex="1" parent="1">
          <mxGeometry x="160" y="720" width="40" height="80" as="geometry" />
        </mxCell>
        <mxCell id="cY8kMOldSic-Vgdh4lLR-2" value="&lt;font style=&quot;font-size: 18px;&quot;&gt;InstructionMemory&lt;/font&gt;" style="rounded=0;whiteSpace=wrap;html=1;" vertex="1" parent="1">
          <mxGeometry x="400" y="720" width="160" height="160" as="geometry" />
        </mxCell>
        <mxCell id="cY8kMOldSic-Vgdh4lLR-3" value="&lt;font style=&quot;font-size: 15px;&quot;&gt;address&lt;/font&gt;" style="text;html=1;align=center;verticalAlign=middle;resizable=0;points=[];autosize=1;strokeColor=none;fillColor=none;" vertex="1" parent="1">
          <mxGeometry x="400" y="745" width="80" height="30" as="geometry" />
        </mxCell>
        <mxCell id="cY8kMOldSic-Vgdh4lLR-5" value="&lt;font style=&quot;font-size: 18px;&quot;&gt;BPB&lt;/font&gt;" style="rounded=0;whiteSpace=wrap;html=1;" vertex="1" parent="1">
          <mxGeometry x="400" y="430" width="120" height="130" as="geometry" />
        </mxCell>
        <mxCell id="cY8kMOldSic-Vgdh4lLR-6" value="&lt;span style=&quot;font-size: 15px;&quot;&gt;ra&lt;/span&gt;" style="text;html=1;align=center;verticalAlign=middle;resizable=0;points=[];autosize=1;strokeColor=none;fillColor=none;" vertex="1" parent="1">
          <mxGeometry x="400" y="510" width="40" height="30" as="geometry" />
        </mxCell>
        <mxCell id="cY8kMOldSic-Vgdh4lLR-7" value="&lt;span style=&quot;font-size: 15px;&quot;&gt;wd&lt;/span&gt;" style="text;html=1;align=center;verticalAlign=middle;resizable=0;points=[];autosize=1;strokeColor=none;fillColor=none;" vertex="1" parent="1">
          <mxGeometry x="400" y="480" width="40" height="30" as="geometry" />
        </mxCell>
        <mxCell id="cY8kMOldSic-Vgdh4lLR-8" value="&lt;span style=&quot;font-size: 15px;&quot;&gt;wa&lt;/span&gt;" style="text;html=1;align=center;verticalAlign=middle;resizable=0;points=[];autosize=1;strokeColor=none;fillColor=none;" vertex="1" parent="1">
          <mxGeometry x="400" y="450" width="40" height="30" as="geometry" />
        </mxCell>
        <mxCell id="cY8kMOldSic-Vgdh4lLR-9" value="&lt;font style=&quot;font-size: 18px;&quot;&gt;BTB&lt;/font&gt;" style="rounded=0;whiteSpace=wrap;html=1;" vertex="1" parent="1">
          <mxGeometry x="400" y="270" width="120" height="130" as="geometry" />
        </mxCell>
        <mxCell id="cY8kMOldSic-Vgdh4lLR-10" value="&lt;span style=&quot;font-size: 15px;&quot;&gt;ra&lt;/span&gt;" style="text;html=1;align=center;verticalAlign=middle;resizable=0;points=[];autosize=1;strokeColor=none;fillColor=none;" vertex="1" parent="1">
          <mxGeometry x="400" y="370" width="40" height="30" as="geometry" />
        </mxCell>
        <mxCell id="cY8kMOldSic-Vgdh4lLR-11" value="&lt;span style=&quot;font-size: 15px;&quot;&gt;wd&lt;/span&gt;" style="text;html=1;align=center;verticalAlign=middle;resizable=0;points=[];autosize=1;strokeColor=none;fillColor=none;" vertex="1" parent="1">
          <mxGeometry x="400" y="340" width="40" height="30" as="geometry" />
        </mxCell>
        <mxCell id="cY8kMOldSic-Vgdh4lLR-12" value="&lt;span style=&quot;font-size: 15px;&quot;&gt;wa&lt;/span&gt;" style="text;html=1;align=center;verticalAlign=middle;resizable=0;points=[];autosize=1;strokeColor=none;fillColor=none;" vertex="1" parent="1">
          <mxGeometry x="400" y="310" width="40" height="30" as="geometry" />
        </mxCell>
        <mxCell id="cY8kMOldSic-Vgdh4lLR-31" style="edgeStyle=orthogonalEdgeStyle;rounded=0;orthogonalLoop=1;jettySize=auto;html=1;entryX=0;entryY=0.5;entryDx=0;entryDy=0;" edge="1" parent="1" source="cY8kMOldSic-Vgdh4lLR-35" target="cY8kMOldSic-Vgdh4lLR-28">
          <mxGeometry relative="1" as="geometry" />
        </mxCell>
        <mxCell id="cY8kMOldSic-Vgdh4lLR-13" value="&lt;span style=&quot;font-size: 15px;&quot;&gt;pbr&lt;/span&gt;" style="text;html=1;align=center;verticalAlign=middle;resizable=0;points=[];autosize=1;strokeColor=none;fillColor=none;" vertex="1" parent="1">
          <mxGeometry x="475" y="510" width="50" height="30" as="geometry" />
        </mxCell>
        <mxCell id="cY8kMOldSic-Vgdh4lLR-14" value="" style="edgeStyle=orthogonalEdgeStyle;rounded=0;orthogonalLoop=1;jettySize=auto;html=1;exitX=1;exitY=0.5;exitDx=0;exitDy=0;entryDx=0;entryDy=0;entryPerimeter=0;endArrow=none;endFill=0;" edge="1" parent="1" source="cY8kMOldSic-Vgdh4lLR-1" target="cY8kMOldSic-Vgdh4lLR-15">
          <mxGeometry relative="1" as="geometry">
            <mxPoint x="200" y="760" as="sourcePoint" />
            <mxPoint x="400" y="760" as="targetPoint" />
          </mxGeometry>
        </mxCell>
        <mxCell id="cY8kMOldSic-Vgdh4lLR-20" value="&lt;font style=&quot;font-size: 15px;&quot;&gt;pc_wr&lt;/font&gt;" style="edgeLabel;html=1;align=center;verticalAlign=middle;resizable=0;points=[];" vertex="1" connectable="0" parent="cY8kMOldSic-Vgdh4lLR-14">
          <mxGeometry x="0.0333" y="-2" relative="1" as="geometry">
            <mxPoint as="offset" />
          </mxGeometry>
        </mxCell>
        <mxCell id="cY8kMOldSic-Vgdh4lLR-16" style="edgeStyle=orthogonalEdgeStyle;rounded=0;orthogonalLoop=1;jettySize=auto;html=1;entryX=0;entryY=0.667;entryDx=0;entryDy=0;entryPerimeter=0;" edge="1" parent="1" source="cY8kMOldSic-Vgdh4lLR-57" target="cY8kMOldSic-Vgdh4lLR-10">
          <mxGeometry relative="1" as="geometry">
            <mxPoint x="320" y="380" as="targetPoint" />
            <Array as="points">
              <mxPoint x="321" y="390" />
            </Array>
          </mxGeometry>
        </mxCell>
        <mxCell id="cY8kMOldSic-Vgdh4lLR-15" value="" style="shape=waypoint;sketch=0;fillStyle=solid;size=6;pointerEvents=1;points=[];fillColor=none;resizable=0;rotatable=0;perimeter=centerPerimeter;snapToPoint=1;" vertex="1" parent="1">
          <mxGeometry x="310" y="750" width="20" height="20" as="geometry" />
        </mxCell>
        <mxCell id="cY8kMOldSic-Vgdh4lLR-19" style="edgeStyle=orthogonalEdgeStyle;rounded=0;orthogonalLoop=1;jettySize=auto;html=1;" edge="1" parent="1" source="cY8kMOldSic-Vgdh4lLR-17" target="cY8kMOldSic-Vgdh4lLR-6">
          <mxGeometry relative="1" as="geometry" />
        </mxCell>
        <mxCell id="cY8kMOldSic-Vgdh4lLR-17" value="" style="shape=waypoint;sketch=0;fillStyle=solid;size=6;pointerEvents=1;points=[];fillColor=none;resizable=0;rotatable=0;perimeter=centerPerimeter;snapToPoint=1;" vertex="1" parent="1">
          <mxGeometry x="310" y="515" width="20" height="20" as="geometry" />
        </mxCell>
        <mxCell id="cY8kMOldSic-Vgdh4lLR-27" style="edgeStyle=orthogonalEdgeStyle;rounded=0;orthogonalLoop=1;jettySize=auto;html=1;entryX=0;entryY=0.5;entryDx=0;entryDy=0;" edge="1" parent="1" source="cY8kMOldSic-Vgdh4lLR-44" target="cY8kMOldSic-Vgdh4lLR-26">
          <mxGeometry relative="1" as="geometry" />
        </mxCell>
        <mxCell id="cY8kMOldSic-Vgdh4lLR-23" value="&lt;font style=&quot;font-size: 15px;&quot;&gt;q&lt;/font&gt;" style="text;html=1;align=center;verticalAlign=middle;resizable=0;points=[];autosize=1;strokeColor=none;fillColor=none;" vertex="1" parent="1">
          <mxGeometry x="530" y="745" width="30" height="30" as="geometry" />
        </mxCell>
        <mxCell id="cY8kMOldSic-Vgdh4lLR-30" style="edgeStyle=orthogonalEdgeStyle;rounded=0;orthogonalLoop=1;jettySize=auto;html=1;entryX=0;entryY=0.5;entryDx=0;entryDy=0;" edge="1" parent="1" source="cY8kMOldSic-Vgdh4lLR-32" target="cY8kMOldSic-Vgdh4lLR-29">
          <mxGeometry relative="1" as="geometry" />
        </mxCell>
        <mxCell id="cY8kMOldSic-Vgdh4lLR-24" value="&lt;span style=&quot;font-size: 15px;&quot;&gt;bt&lt;/span&gt;" style="text;html=1;align=center;verticalAlign=middle;resizable=0;points=[];autosize=1;strokeColor=none;fillColor=none;" vertex="1" parent="1">
          <mxGeometry x="480" y="370" width="40" height="30" as="geometry" />
        </mxCell>
        <mxCell id="cY8kMOldSic-Vgdh4lLR-300" style="edgeStyle=orthogonalEdgeStyle;rounded=0;orthogonalLoop=1;jettySize=auto;html=1;entryX=1;entryY=0.5;entryDx=0;entryDy=0;endArrow=none;endFill=0;startArrow=none;startFill=0;" edge="1" parent="1" source="cY8kMOldSic-Vgdh4lLR-304" target="cY8kMOldSic-Vgdh4lLR-145">
          <mxGeometry relative="1" as="geometry">
            <mxPoint x="1710" y="722.2222222222222" as="targetPoint" />
            <Array as="points">
              <mxPoint x="1720" y="722" />
              <mxPoint x="1640" y="722" />
            </Array>
          </mxGeometry>
        </mxCell>
        <mxCell id="cY8kMOldSic-Vgdh4lLR-25" value="&lt;span style=&quot;font-size: 15px;&quot;&gt;pre_bt&lt;/span&gt;" style="text;html=1;align=center;verticalAlign=middle;resizable=0;points=[];autosize=1;strokeColor=none;fillColor=none;" vertex="1" parent="1">
          <mxGeometry x="400" y="280" width="70" height="30" as="geometry" />
        </mxCell>
        <mxCell id="cY8kMOldSic-Vgdh4lLR-26" value="&lt;font style=&quot;font-size: 18px;&quot;&gt;ir&lt;/font&gt;" style="rounded=0;whiteSpace=wrap;html=1;" vertex="1" parent="1">
          <mxGeometry x="720" y="740" width="40" height="40" as="geometry" />
        </mxCell>
        <mxCell id="cY8kMOldSic-Vgdh4lLR-194" style="edgeStyle=orthogonalEdgeStyle;rounded=0;orthogonalLoop=1;jettySize=auto;html=1;entryX=0;entryY=0.5;entryDx=0;entryDy=0;" edge="1" parent="1" source="cY8kMOldSic-Vgdh4lLR-28" target="cY8kMOldSic-Vgdh4lLR-153">
          <mxGeometry relative="1" as="geometry" />
        </mxCell>
        <mxCell id="cY8kMOldSic-Vgdh4lLR-28" value="&lt;font style=&quot;font-size: 18px;&quot;&gt;pbr&lt;/font&gt;" style="rounded=0;whiteSpace=wrap;html=1;strokeColor=#FF3333;" vertex="1" parent="1">
          <mxGeometry x="720" y="505" width="40" height="40" as="geometry" />
        </mxCell>
        <mxCell id="cY8kMOldSic-Vgdh4lLR-204" style="edgeStyle=orthogonalEdgeStyle;rounded=0;orthogonalLoop=1;jettySize=auto;html=1;" edge="1" parent="1" source="cY8kMOldSic-Vgdh4lLR-29">
          <mxGeometry relative="1" as="geometry">
            <mxPoint x="1600" y="385" as="targetPoint" />
          </mxGeometry>
        </mxCell>
        <mxCell id="cY8kMOldSic-Vgdh4lLR-29" value="&lt;font style=&quot;font-size: 18px;&quot;&gt;bt&lt;/font&gt;" style="rounded=0;whiteSpace=wrap;html=1;strokeColor=#FF3333;" vertex="1" parent="1">
          <mxGeometry x="720" y="365" width="40" height="40" as="geometry" />
        </mxCell>
        <mxCell id="cY8kMOldSic-Vgdh4lLR-33" value="" style="edgeStyle=orthogonalEdgeStyle;rounded=0;orthogonalLoop=1;jettySize=auto;html=1;entryDx=0;entryDy=0;endArrow=none;endFill=0;" edge="1" parent="1" source="cY8kMOldSic-Vgdh4lLR-24" target="cY8kMOldSic-Vgdh4lLR-32">
          <mxGeometry relative="1" as="geometry">
            <mxPoint x="520" y="385" as="sourcePoint" />
            <mxPoint x="720" y="385" as="targetPoint" />
          </mxGeometry>
        </mxCell>
        <mxCell id="cY8kMOldSic-Vgdh4lLR-83" style="edgeStyle=orthogonalEdgeStyle;rounded=0;orthogonalLoop=1;jettySize=auto;html=1;entryX=0;entryY=0;entryDx=0;entryDy=0;" edge="1" parent="1" source="cY8kMOldSic-Vgdh4lLR-32" target="cY8kMOldSic-Vgdh4lLR-69">
          <mxGeometry relative="1" as="geometry">
            <mxPoint x="-220" y="730" as="targetPoint" />
            <Array as="points">
              <mxPoint x="570" y="240" />
              <mxPoint x="-240" y="240" />
              <mxPoint x="-240" y="732" />
            </Array>
          </mxGeometry>
        </mxCell>
        <mxCell id="cY8kMOldSic-Vgdh4lLR-84" value="&lt;font style=&quot;font-size: 15px;&quot;&gt;bt&lt;/font&gt;" style="edgeLabel;html=1;align=center;verticalAlign=middle;resizable=0;points=[];" vertex="1" connectable="0" parent="cY8kMOldSic-Vgdh4lLR-83">
          <mxGeometry x="0.9392" relative="1" as="geometry">
            <mxPoint as="offset" />
          </mxGeometry>
        </mxCell>
        <mxCell id="cY8kMOldSic-Vgdh4lLR-32" value="" style="shape=waypoint;sketch=0;fillStyle=solid;size=6;pointerEvents=1;points=[];fillColor=none;resizable=0;rotatable=0;perimeter=centerPerimeter;snapToPoint=1;" vertex="1" parent="1">
          <mxGeometry x="560" y="375" width="20" height="20" as="geometry" />
        </mxCell>
        <mxCell id="cY8kMOldSic-Vgdh4lLR-34" value="" style="edgeStyle=orthogonalEdgeStyle;rounded=0;orthogonalLoop=1;jettySize=auto;html=1;entryDx=0;entryDy=0;endArrow=none;endFill=0;" edge="1" parent="1" target="cY8kMOldSic-Vgdh4lLR-35">
          <mxGeometry relative="1" as="geometry">
            <mxPoint x="520" y="525" as="sourcePoint" />
            <mxPoint x="720" y="525" as="targetPoint" />
          </mxGeometry>
        </mxCell>
        <mxCell id="cY8kMOldSic-Vgdh4lLR-85" style="edgeStyle=orthogonalEdgeStyle;rounded=0;orthogonalLoop=1;jettySize=auto;html=1;endArrow=none;endFill=0;" edge="1" parent="1" source="cY8kMOldSic-Vgdh4lLR-35">
          <mxGeometry relative="1" as="geometry">
            <mxPoint x="-140" y="640" as="targetPoint" />
            <Array as="points">
              <mxPoint x="620" y="260" />
              <mxPoint x="-140" y="260" />
            </Array>
          </mxGeometry>
        </mxCell>
        <mxCell id="cY8kMOldSic-Vgdh4lLR-35" value="" style="shape=waypoint;sketch=0;fillStyle=solid;size=6;pointerEvents=1;points=[];fillColor=none;resizable=0;rotatable=0;perimeter=centerPerimeter;snapToPoint=1;" vertex="1" parent="1">
          <mxGeometry x="610" y="515" width="20" height="20" as="geometry" />
        </mxCell>
        <mxCell id="cY8kMOldSic-Vgdh4lLR-81" style="edgeStyle=orthogonalEdgeStyle;rounded=0;orthogonalLoop=1;jettySize=auto;html=1;entryX=0;entryY=0.5;entryDx=0;entryDy=0;" edge="1" parent="1" source="cY8kMOldSic-Vgdh4lLR-37" target="cY8kMOldSic-Vgdh4lLR-1">
          <mxGeometry relative="1" as="geometry" />
        </mxCell>
        <mxCell id="cY8kMOldSic-Vgdh4lLR-37" value="&lt;font style=&quot;font-size: 15px;&quot;&gt;1&lt;br&gt;&lt;br&gt;0&lt;/font&gt;" style="ellipse;whiteSpace=wrap;html=1;" vertex="1" parent="1">
          <mxGeometry x="80" y="720" width="40" height="80" as="geometry" />
        </mxCell>
        <mxCell id="cY8kMOldSic-Vgdh4lLR-38" value="" style="endArrow=none;html=1;rounded=0;" edge="1" parent="1">
          <mxGeometry width="50" height="50" relative="1" as="geometry">
            <mxPoint x="100" y="720" as="sourcePoint" />
            <mxPoint x="100" y="560" as="targetPoint" />
          </mxGeometry>
        </mxCell>
        <mxCell id="cY8kMOldSic-Vgdh4lLR-39" value="&lt;font style=&quot;font-size: 14px;&quot;&gt;sof&lt;/font&gt;" style="edgeLabel;html=1;align=center;verticalAlign=middle;resizable=0;points=[];" vertex="1" connectable="0" parent="cY8kMOldSic-Vgdh4lLR-38">
          <mxGeometry x="-0.3625" y="1" relative="1" as="geometry">
            <mxPoint as="offset" />
          </mxGeometry>
        </mxCell>
        <mxCell id="cY8kMOldSic-Vgdh4lLR-40" value="" style="endArrow=classic;html=1;rounded=0;entryX=0;entryY=0;entryDx=0;entryDy=0;" edge="1" parent="1" target="cY8kMOldSic-Vgdh4lLR-37">
          <mxGeometry width="50" height="50" relative="1" as="geometry">
            <mxPoint x="40" y="440" as="sourcePoint" />
            <mxPoint x="40" y="730" as="targetPoint" />
            <Array as="points">
              <mxPoint x="40" y="630" />
              <mxPoint x="40" y="732" />
              <mxPoint x="60" y="732" />
            </Array>
          </mxGeometry>
        </mxCell>
        <mxCell id="cY8kMOldSic-Vgdh4lLR-41" value="&lt;font style=&quot;font-size: 14px;&quot;&gt;rpc&lt;/font&gt;" style="edgeLabel;html=1;align=center;verticalAlign=middle;resizable=0;points=[];" vertex="1" connectable="0" parent="cY8kMOldSic-Vgdh4lLR-40">
          <mxGeometry x="0.2372" y="-3" relative="1" as="geometry">
            <mxPoint as="offset" />
          </mxGeometry>
        </mxCell>
        <mxCell id="cY8kMOldSic-Vgdh4lLR-68" style="edgeStyle=orthogonalEdgeStyle;rounded=0;orthogonalLoop=1;jettySize=auto;html=1;exitX=1;exitY=1;exitDx=0;exitDy=0;entryX=0;entryY=1;entryDx=0;entryDy=0;" edge="1" parent="1" source="cY8kMOldSic-Vgdh4lLR-42" target="cY8kMOldSic-Vgdh4lLR-37">
          <mxGeometry relative="1" as="geometry" />
        </mxCell>
        <mxCell id="cY8kMOldSic-Vgdh4lLR-42" value="&lt;font style=&quot;font-size: 15px;&quot;&gt;1&lt;br&gt;&lt;br&gt;0&lt;/font&gt;" style="ellipse;whiteSpace=wrap;html=1;" vertex="1" parent="1">
          <mxGeometry x="-40" y="720" width="40" height="80" as="geometry" />
        </mxCell>
        <mxCell id="cY8kMOldSic-Vgdh4lLR-43" value="" style="edgeStyle=orthogonalEdgeStyle;rounded=0;orthogonalLoop=1;jettySize=auto;html=1;entryDx=0;entryDy=0;endArrow=none;endFill=0;" edge="1" parent="1" source="cY8kMOldSic-Vgdh4lLR-23" target="cY8kMOldSic-Vgdh4lLR-44">
          <mxGeometry relative="1" as="geometry">
            <mxPoint x="560" y="760" as="sourcePoint" />
            <mxPoint x="720" y="760" as="targetPoint" />
          </mxGeometry>
        </mxCell>
        <mxCell id="cY8kMOldSic-Vgdh4lLR-45" style="edgeStyle=orthogonalEdgeStyle;rounded=0;orthogonalLoop=1;jettySize=auto;html=1;entryX=0.5;entryY=1;entryDx=0;entryDy=0;endArrow=none;endFill=0;" edge="1" parent="1" source="cY8kMOldSic-Vgdh4lLR-51" target="cY8kMOldSic-Vgdh4lLR-42">
          <mxGeometry relative="1" as="geometry">
            <mxPoint x="-20" y="900" as="targetPoint" />
            <Array as="points">
              <mxPoint x="-20" y="910" />
            </Array>
          </mxGeometry>
        </mxCell>
        <mxCell id="cY8kMOldSic-Vgdh4lLR-47" value="&lt;font style=&quot;font-size: 15px;&quot;&gt;q[15:11]&lt;/font&gt;" style="edgeLabel;html=1;align=center;verticalAlign=middle;resizable=0;points=[];" vertex="1" connectable="0" parent="cY8kMOldSic-Vgdh4lLR-45">
          <mxGeometry x="0.9197" y="-2" relative="1" as="geometry">
            <mxPoint as="offset" />
          </mxGeometry>
        </mxCell>
        <mxCell id="cY8kMOldSic-Vgdh4lLR-44" value="" style="shape=waypoint;sketch=0;fillStyle=solid;size=6;pointerEvents=1;points=[];fillColor=none;resizable=0;rotatable=0;perimeter=centerPerimeter;snapToPoint=1;" vertex="1" parent="1">
          <mxGeometry x="630" y="750" width="20" height="20" as="geometry" />
        </mxCell>
        <mxCell id="cY8kMOldSic-Vgdh4lLR-66" style="edgeStyle=orthogonalEdgeStyle;rounded=0;orthogonalLoop=1;jettySize=auto;html=1;entryX=0;entryY=0;entryDx=0;entryDy=0;" edge="1" parent="1" source="cY8kMOldSic-Vgdh4lLR-48" target="cY8kMOldSic-Vgdh4lLR-42">
          <mxGeometry relative="1" as="geometry">
            <mxPoint x="-110" y="740" as="targetPoint" />
            <Array as="points">
              <mxPoint x="-70" y="975" />
              <mxPoint x="-70" y="732" />
            </Array>
          </mxGeometry>
        </mxCell>
        <mxCell id="cY8kMOldSic-Vgdh4lLR-67" value="&lt;font style=&quot;font-size: 15px;&quot;&gt;pcif&lt;/font&gt;" style="edgeLabel;html=1;align=center;verticalAlign=middle;resizable=0;points=[];" vertex="1" connectable="0" parent="cY8kMOldSic-Vgdh4lLR-66">
          <mxGeometry x="0.9142" relative="1" as="geometry">
            <mxPoint as="offset" />
          </mxGeometry>
        </mxCell>
        <mxCell id="cY8kMOldSic-Vgdh4lLR-48" value="&lt;span style=&quot;font-size: 15px;&quot;&gt;Add&lt;/span&gt;" style="shape=trapezoid;perimeter=trapezoidPerimeter;whiteSpace=wrap;html=1;fixedSize=1;rotation=-90;" vertex="1" parent="1">
          <mxGeometry x="210" y="950" width="90" height="50" as="geometry" />
        </mxCell>
        <mxCell id="cY8kMOldSic-Vgdh4lLR-49" value="" style="edgeStyle=orthogonalEdgeStyle;rounded=0;orthogonalLoop=1;jettySize=auto;html=1;entryDx=0;entryDy=0;endArrow=none;endFill=0;" edge="1" parent="1" target="cY8kMOldSic-Vgdh4lLR-51">
          <mxGeometry relative="1" as="geometry">
            <mxPoint x="-20" y="800" as="targetPoint" />
            <mxPoint x="640" y="860" as="sourcePoint" />
            <Array as="points" />
          </mxGeometry>
        </mxCell>
        <mxCell id="cY8kMOldSic-Vgdh4lLR-52" style="edgeStyle=orthogonalEdgeStyle;rounded=0;orthogonalLoop=1;jettySize=auto;html=1;entryX=0.25;entryY=1;entryDx=0;entryDy=0;" edge="1" parent="1" source="cY8kMOldSic-Vgdh4lLR-51" target="cY8kMOldSic-Vgdh4lLR-48">
          <mxGeometry relative="1" as="geometry">
            <Array as="points">
              <mxPoint x="640" y="998" />
            </Array>
          </mxGeometry>
        </mxCell>
        <mxCell id="cY8kMOldSic-Vgdh4lLR-53" value="&lt;font style=&quot;font-size: 15px;&quot;&gt;q[7:0]&lt;/font&gt;" style="edgeLabel;html=1;align=center;verticalAlign=middle;resizable=0;points=[];" vertex="1" connectable="0" parent="cY8kMOldSic-Vgdh4lLR-52">
          <mxGeometry x="0.7184" y="-1" relative="1" as="geometry">
            <mxPoint as="offset" />
          </mxGeometry>
        </mxCell>
        <mxCell id="cY8kMOldSic-Vgdh4lLR-51" value="" style="shape=waypoint;sketch=0;fillStyle=solid;size=6;pointerEvents=1;points=[];fillColor=none;resizable=0;rotatable=0;perimeter=centerPerimeter;snapToPoint=1;" vertex="1" parent="1">
          <mxGeometry x="630" y="900" width="20" height="20" as="geometry" />
        </mxCell>
        <mxCell id="cY8kMOldSic-Vgdh4lLR-62" style="edgeStyle=orthogonalEdgeStyle;rounded=0;orthogonalLoop=1;jettySize=auto;html=1;" edge="1" parent="1" source="cY8kMOldSic-Vgdh4lLR-54">
          <mxGeometry relative="1" as="geometry">
            <mxPoint x="720" y="645" as="targetPoint" />
          </mxGeometry>
        </mxCell>
        <mxCell id="cY8kMOldSic-Vgdh4lLR-54" value="&lt;span style=&quot;font-size: 15px;&quot;&gt;Add&lt;/span&gt;" style="shape=trapezoid;perimeter=trapezoidPerimeter;whiteSpace=wrap;html=1;fixedSize=1;rotation=90;" vertex="1" parent="1">
          <mxGeometry x="450" y="620" width="90" height="50" as="geometry" />
        </mxCell>
        <mxCell id="cY8kMOldSic-Vgdh4lLR-55" value="" style="edgeStyle=orthogonalEdgeStyle;rounded=0;orthogonalLoop=1;jettySize=auto;html=1;entryDx=0;entryDy=0;entryPerimeter=0;endArrow=none;endFill=0;" edge="1" parent="1" source="cY8kMOldSic-Vgdh4lLR-15" target="cY8kMOldSic-Vgdh4lLR-57">
          <mxGeometry relative="1" as="geometry">
            <mxPoint x="400" y="390" as="targetPoint" />
            <mxPoint x="320" y="760" as="sourcePoint" />
            <Array as="points">
              <mxPoint x="321" y="760" />
            </Array>
          </mxGeometry>
        </mxCell>
        <mxCell id="cY8kMOldSic-Vgdh4lLR-56" value="&lt;font style=&quot;font-size: 15px;&quot;&gt;pc_wr[2:0]&lt;/font&gt;" style="edgeLabel;html=1;align=center;verticalAlign=middle;resizable=0;points=[];" vertex="1" connectable="0" parent="cY8kMOldSic-Vgdh4lLR-55">
          <mxGeometry x="-0.5711" y="-4" relative="1" as="geometry">
            <mxPoint x="-5" y="-184" as="offset" />
          </mxGeometry>
        </mxCell>
        <mxCell id="cY8kMOldSic-Vgdh4lLR-58" style="edgeStyle=orthogonalEdgeStyle;rounded=0;orthogonalLoop=1;jettySize=auto;html=1;entryX=0.25;entryY=1;entryDx=0;entryDy=0;" edge="1" parent="1" source="cY8kMOldSic-Vgdh4lLR-57" target="cY8kMOldSic-Vgdh4lLR-54">
          <mxGeometry relative="1" as="geometry">
            <Array as="points">
              <mxPoint x="320" y="623" />
              <mxPoint x="400" y="623" />
            </Array>
          </mxGeometry>
        </mxCell>
        <mxCell id="cY8kMOldSic-Vgdh4lLR-57" value="" style="shape=waypoint;sketch=0;fillStyle=solid;size=6;pointerEvents=1;points=[];fillColor=none;resizable=0;rotatable=0;perimeter=centerPerimeter;snapToPoint=1;" vertex="1" parent="1">
          <mxGeometry x="310" y="610" width="20" height="20" as="geometry" />
        </mxCell>
        <mxCell id="cY8kMOldSic-Vgdh4lLR-60" value="" style="endArrow=none;html=1;rounded=0;" edge="1" parent="1">
          <mxGeometry width="50" height="50" relative="1" as="geometry">
            <mxPoint x="440" y="660" as="sourcePoint" />
            <mxPoint x="470" y="660" as="targetPoint" />
          </mxGeometry>
        </mxCell>
        <mxCell id="cY8kMOldSic-Vgdh4lLR-61" value="&lt;font style=&quot;font-size: 15px;&quot;&gt;+1&lt;/font&gt;" style="text;html=1;align=center;verticalAlign=middle;resizable=0;points=[];autosize=1;strokeColor=none;fillColor=none;" vertex="1" parent="1">
          <mxGeometry x="400" y="648" width="40" height="30" as="geometry" />
        </mxCell>
        <mxCell id="cY8kMOldSic-Vgdh4lLR-142" style="edgeStyle=orthogonalEdgeStyle;rounded=0;orthogonalLoop=1;jettySize=auto;html=1;entryX=0.333;entryY=0.983;entryDx=0;entryDy=0;entryPerimeter=0;" edge="1" parent="1" source="cY8kMOldSic-Vgdh4lLR-147" target="cY8kMOldSic-Vgdh4lLR-141">
          <mxGeometry relative="1" as="geometry">
            <Array as="points">
              <mxPoint x="1020" y="700" />
            </Array>
          </mxGeometry>
        </mxCell>
        <mxCell id="cY8kMOldSic-Vgdh4lLR-63" value="&lt;font style=&quot;font-size: 18px;&quot;&gt;pc&lt;br&gt;plus1&lt;/font&gt;" style="rounded=0;whiteSpace=wrap;html=1;strokeColor=#FF3333;" vertex="1" parent="1">
          <mxGeometry x="720" y="613" width="40" height="65" as="geometry" />
        </mxCell>
        <mxCell id="cY8kMOldSic-Vgdh4lLR-65" style="edgeStyle=orthogonalEdgeStyle;rounded=0;orthogonalLoop=1;jettySize=auto;html=1;entryX=0.75;entryY=1;entryDx=0;entryDy=0;" edge="1" parent="1" source="cY8kMOldSic-Vgdh4lLR-76" target="cY8kMOldSic-Vgdh4lLR-48">
          <mxGeometry relative="1" as="geometry">
            <mxPoint x="600" y="960" as="targetPoint" />
            <Array as="points">
              <mxPoint x="600" y="953" />
            </Array>
          </mxGeometry>
        </mxCell>
        <mxCell id="cY8kMOldSic-Vgdh4lLR-64" value="" style="shape=waypoint;sketch=0;fillStyle=solid;size=6;pointerEvents=1;points=[];fillColor=none;resizable=0;rotatable=0;perimeter=centerPerimeter;snapToPoint=1;" vertex="1" parent="1">
          <mxGeometry x="590" y="636" width="20" height="20" as="geometry" />
        </mxCell>
        <mxCell id="cY8kMOldSic-Vgdh4lLR-80" style="edgeStyle=orthogonalEdgeStyle;rounded=0;orthogonalLoop=1;jettySize=auto;html=1;exitX=1;exitY=1;exitDx=0;exitDy=0;entryX=0;entryY=1;entryDx=0;entryDy=0;" edge="1" parent="1" source="cY8kMOldSic-Vgdh4lLR-69" target="cY8kMOldSic-Vgdh4lLR-42">
          <mxGeometry relative="1" as="geometry" />
        </mxCell>
        <mxCell id="cY8kMOldSic-Vgdh4lLR-69" value="&lt;font style=&quot;font-size: 15px;&quot;&gt;1&lt;br&gt;&lt;br&gt;0&lt;/font&gt;" style="ellipse;whiteSpace=wrap;html=1;" vertex="1" parent="1">
          <mxGeometry x="-160" y="720" width="40" height="80" as="geometry" />
        </mxCell>
        <mxCell id="cY8kMOldSic-Vgdh4lLR-70" value="" style="endArrow=none;html=1;rounded=0;" edge="1" parent="1">
          <mxGeometry width="50" height="50" relative="1" as="geometry">
            <mxPoint x="-140" y="720" as="sourcePoint" />
            <mxPoint x="-140" y="640" as="targetPoint" />
          </mxGeometry>
        </mxCell>
        <mxCell id="cY8kMOldSic-Vgdh4lLR-71" value="&lt;font style=&quot;font-size: 15px;&quot;&gt;pbr&lt;/font&gt;" style="edgeLabel;html=1;align=center;verticalAlign=middle;resizable=0;points=[];" vertex="1" connectable="0" parent="cY8kMOldSic-Vgdh4lLR-70">
          <mxGeometry x="-0.375" y="1" relative="1" as="geometry">
            <mxPoint as="offset" />
          </mxGeometry>
        </mxCell>
        <mxCell id="cY8kMOldSic-Vgdh4lLR-77" value="" style="edgeStyle=orthogonalEdgeStyle;rounded=0;orthogonalLoop=1;jettySize=auto;html=1;entryDx=0;entryDy=0;endArrow=none;endFill=0;" edge="1" parent="1" source="cY8kMOldSic-Vgdh4lLR-64" target="cY8kMOldSic-Vgdh4lLR-76">
          <mxGeometry relative="1" as="geometry">
            <mxPoint x="280" y="953" as="targetPoint" />
            <mxPoint x="600" y="646" as="sourcePoint" />
            <Array as="points" />
          </mxGeometry>
        </mxCell>
        <mxCell id="cY8kMOldSic-Vgdh4lLR-78" style="edgeStyle=orthogonalEdgeStyle;rounded=0;orthogonalLoop=1;jettySize=auto;html=1;entryX=0;entryY=1;entryDx=0;entryDy=0;" edge="1" parent="1" source="cY8kMOldSic-Vgdh4lLR-76" target="cY8kMOldSic-Vgdh4lLR-69">
          <mxGeometry relative="1" as="geometry">
            <mxPoint x="-230" y="810" as="targetPoint" />
            <Array as="points">
              <mxPoint x="600" y="1000" />
              <mxPoint x="601" y="1000" />
              <mxPoint x="601" y="1050" />
              <mxPoint x="-240" y="1050" />
              <mxPoint x="-240" y="788" />
            </Array>
          </mxGeometry>
        </mxCell>
        <mxCell id="cY8kMOldSic-Vgdh4lLR-79" value="&lt;font style=&quot;font-size: 15px;&quot;&gt;pcplus1&lt;/font&gt;" style="edgeLabel;html=1;align=center;verticalAlign=middle;resizable=0;points=[];" vertex="1" connectable="0" parent="cY8kMOldSic-Vgdh4lLR-78">
          <mxGeometry x="0.9118" relative="1" as="geometry">
            <mxPoint as="offset" />
          </mxGeometry>
        </mxCell>
        <mxCell id="cY8kMOldSic-Vgdh4lLR-76" value="" style="shape=waypoint;sketch=0;fillStyle=solid;size=6;pointerEvents=1;points=[];fillColor=none;resizable=0;rotatable=0;perimeter=centerPerimeter;snapToPoint=1;" vertex="1" parent="1">
          <mxGeometry x="590" y="940" width="20" height="20" as="geometry" />
        </mxCell>
        <mxCell id="cY8kMOldSic-Vgdh4lLR-87" style="edgeStyle=orthogonalEdgeStyle;rounded=0;orthogonalLoop=1;jettySize=auto;html=1;exitDx=0;exitDy=0;" edge="1" parent="1" source="cY8kMOldSic-Vgdh4lLR-89" target="cY8kMOldSic-Vgdh4lLR-7">
          <mxGeometry relative="1" as="geometry">
            <mxPoint x="370" y="500" as="targetPoint" />
            <Array as="points">
              <mxPoint x="370" y="495" />
            </Array>
          </mxGeometry>
        </mxCell>
        <mxCell id="cY8kMOldSic-Vgdh4lLR-98" style="edgeStyle=orthogonalEdgeStyle;rounded=0;orthogonalLoop=1;jettySize=auto;html=1;endArrow=none;endFill=0;exitX=0.5;exitY=0;exitDx=0;exitDy=0;" edge="1" parent="1" source="cY8kMOldSic-Vgdh4lLR-289">
          <mxGeometry relative="1" as="geometry">
            <mxPoint x="100" y="560" as="targetPoint" />
            <mxPoint x="2250" y="400" as="sourcePoint" />
            <Array as="points">
              <mxPoint x="2240" y="-160" />
              <mxPoint x="101" y="-160" />
              <mxPoint x="101" y="560" />
            </Array>
          </mxGeometry>
        </mxCell>
        <mxCell id="cY8kMOldSic-Vgdh4lLR-99" value="&lt;font style=&quot;font-size: 15px;&quot;&gt;sof&lt;/font&gt;" style="edgeLabel;html=1;align=center;verticalAlign=middle;resizable=0;points=[];" vertex="1" connectable="0" parent="cY8kMOldSic-Vgdh4lLR-98">
          <mxGeometry x="-0.8754" y="-4" relative="1" as="geometry">
            <mxPoint y="187" as="offset" />
          </mxGeometry>
        </mxCell>
        <mxCell id="cY8kMOldSic-Vgdh4lLR-91" style="edgeStyle=orthogonalEdgeStyle;rounded=0;orthogonalLoop=1;jettySize=auto;html=1;" edge="1" parent="1" source="cY8kMOldSic-Vgdh4lLR-89" target="cY8kMOldSic-Vgdh4lLR-11">
          <mxGeometry relative="1" as="geometry" />
        </mxCell>
        <mxCell id="cY8kMOldSic-Vgdh4lLR-298" style="edgeStyle=orthogonalEdgeStyle;rounded=0;orthogonalLoop=1;jettySize=auto;html=1;entryX=0.25;entryY=0;entryDx=0;entryDy=0;endArrow=none;endFill=0;" edge="1" parent="1" source="cY8kMOldSic-Vgdh4lLR-313" target="cY8kMOldSic-Vgdh4lLR-289">
          <mxGeometry relative="1" as="geometry">
            <mxPoint x="2220" y="-120" as="targetPoint" />
            <Array as="points" />
          </mxGeometry>
        </mxCell>
        <mxCell id="cY8kMOldSic-Vgdh4lLR-299" value="&lt;font style=&quot;font-size: 16px;&quot;&gt;wd&lt;/font&gt;" style="edgeLabel;html=1;align=center;verticalAlign=middle;resizable=0;points=[];" vertex="1" connectable="0" parent="cY8kMOldSic-Vgdh4lLR-298">
          <mxGeometry x="0.9814" y="3" relative="1" as="geometry">
            <mxPoint x="-3" y="-29" as="offset" />
          </mxGeometry>
        </mxCell>
        <mxCell id="cY8kMOldSic-Vgdh4lLR-89" value="" style="shape=waypoint;sketch=0;fillStyle=solid;size=6;pointerEvents=1;points=[];fillColor=none;resizable=0;rotatable=0;perimeter=centerPerimeter;snapToPoint=1;" vertex="1" parent="1">
          <mxGeometry x="360" y="345" width="20" height="20" as="geometry" />
        </mxCell>
        <mxCell id="cY8kMOldSic-Vgdh4lLR-94" value="" style="edgeStyle=orthogonalEdgeStyle;rounded=0;orthogonalLoop=1;jettySize=auto;html=1;entryDx=0;entryDy=0;endArrow=none;endFill=0;startArrow=classicThin;startFill=1;" edge="1" parent="1" source="cY8kMOldSic-Vgdh4lLR-12" target="cY8kMOldSic-Vgdh4lLR-95">
          <mxGeometry relative="1" as="geometry">
            <mxPoint x="690" y="160" as="targetPoint" />
            <mxPoint x="400" y="325" as="sourcePoint" />
            <Array as="points">
              <mxPoint x="340" y="325" />
            </Array>
          </mxGeometry>
        </mxCell>
        <mxCell id="cY8kMOldSic-Vgdh4lLR-96" style="edgeStyle=orthogonalEdgeStyle;rounded=0;orthogonalLoop=1;jettySize=auto;html=1;entryX=0;entryY=0.333;entryDx=0;entryDy=0;entryPerimeter=0;" edge="1" parent="1" source="cY8kMOldSic-Vgdh4lLR-95" target="cY8kMOldSic-Vgdh4lLR-8">
          <mxGeometry relative="1" as="geometry">
            <mxPoint x="340" y="470" as="targetPoint" />
            <Array as="points">
              <mxPoint x="340" y="400" />
              <mxPoint x="341" y="460" />
            </Array>
          </mxGeometry>
        </mxCell>
        <mxCell id="cY8kMOldSic-Vgdh4lLR-286" style="edgeStyle=orthogonalEdgeStyle;rounded=0;orthogonalLoop=1;jettySize=auto;html=1;endArrow=none;endFill=0;" edge="1" parent="1" source="cY8kMOldSic-Vgdh4lLR-95">
          <mxGeometry relative="1" as="geometry">
            <mxPoint x="1751.904761904762" y="-80" as="targetPoint" />
            <Array as="points">
              <mxPoint x="340" y="220" />
              <mxPoint x="340" y="220" />
            </Array>
          </mxGeometry>
        </mxCell>
        <mxCell id="cY8kMOldSic-Vgdh4lLR-95" value="" style="shape=waypoint;sketch=0;fillStyle=solid;size=6;pointerEvents=1;points=[];fillColor=none;resizable=0;rotatable=0;perimeter=centerPerimeter;snapToPoint=1;" vertex="1" parent="1">
          <mxGeometry x="330" y="315" width="20" height="20" as="geometry" />
        </mxCell>
        <mxCell id="cY8kMOldSic-Vgdh4lLR-104" value="" style="edgeStyle=orthogonalEdgeStyle;rounded=0;orthogonalLoop=1;jettySize=auto;html=1;entryDx=0;entryDy=0;endArrow=none;endFill=0;" edge="1" parent="1" source="cY8kMOldSic-Vgdh4lLR-44">
          <mxGeometry relative="1" as="geometry">
            <mxPoint x="640" y="820" as="targetPoint" />
            <mxPoint x="640" y="760" as="sourcePoint" />
            <Array as="points">
              <mxPoint x="641" y="760" />
            </Array>
          </mxGeometry>
        </mxCell>
        <mxCell id="cY8kMOldSic-Vgdh4lLR-107" value="" style="edgeStyle=orthogonalEdgeStyle;rounded=0;orthogonalLoop=1;jettySize=auto;html=1;entryDx=0;entryDy=0;endArrow=none;endFill=0;" edge="1" parent="1">
          <mxGeometry relative="1" as="geometry">
            <mxPoint x="640" y="860" as="targetPoint" />
            <mxPoint x="640" y="820" as="sourcePoint" />
            <Array as="points">
              <mxPoint x="641" y="910" />
            </Array>
          </mxGeometry>
        </mxCell>
        <mxCell id="cY8kMOldSic-Vgdh4lLR-112" value="&lt;font style=&quot;font-size: 18px;&quot;&gt;Register&lt;/font&gt;" style="rounded=0;whiteSpace=wrap;html=1;" vertex="1" parent="1">
          <mxGeometry x="995" y="742.53" width="120" height="160" as="geometry" />
        </mxCell>
        <mxCell id="cY8kMOldSic-Vgdh4lLR-113" value="&lt;font style=&quot;font-size: 15px;&quot;&gt;rd&lt;/font&gt;" style="text;html=1;align=center;verticalAlign=middle;resizable=0;points=[];autosize=1;strokeColor=none;fillColor=none;" vertex="1" parent="1">
          <mxGeometry x="995" y="747.53" width="40" height="30" as="geometry" />
        </mxCell>
        <mxCell id="cY8kMOldSic-Vgdh4lLR-114" value="&lt;font style=&quot;font-size: 15px;&quot;&gt;rs&lt;/font&gt;" style="text;html=1;align=center;verticalAlign=middle;resizable=0;points=[];autosize=1;strokeColor=none;fillColor=none;" vertex="1" parent="1">
          <mxGeometry x="995" y="777.53" width="40" height="30" as="geometry" />
        </mxCell>
        <mxCell id="cY8kMOldSic-Vgdh4lLR-115" value="&lt;font style=&quot;font-size: 15px;&quot;&gt;rw&lt;/font&gt;" style="text;html=1;align=center;verticalAlign=middle;resizable=0;points=[];autosize=1;strokeColor=none;fillColor=none;" vertex="1" parent="1">
          <mxGeometry x="995" y="872.53" width="40" height="30" as="geometry" />
        </mxCell>
        <mxCell id="cY8kMOldSic-Vgdh4lLR-116" value="&lt;font style=&quot;font-size: 15px;&quot;&gt;data&lt;/font&gt;" style="text;html=1;align=center;verticalAlign=middle;resizable=0;points=[];autosize=1;strokeColor=none;fillColor=none;" vertex="1" parent="1">
          <mxGeometry x="990" y="842.53" width="50" height="30" as="geometry" />
        </mxCell>
        <mxCell id="cY8kMOldSic-Vgdh4lLR-130" style="edgeStyle=orthogonalEdgeStyle;rounded=0;orthogonalLoop=1;jettySize=auto;html=1;entryX=0;entryY=0.5;entryDx=0;entryDy=0;" edge="1" parent="1" source="cY8kMOldSic-Vgdh4lLR-121" target="cY8kMOldSic-Vgdh4lLR-131">
          <mxGeometry relative="1" as="geometry">
            <mxPoint x="1400" y="762.53" as="targetPoint" />
          </mxGeometry>
        </mxCell>
        <mxCell id="cY8kMOldSic-Vgdh4lLR-121" value="&lt;font style=&quot;font-size: 15px;&quot;&gt;ar&lt;/font&gt;" style="text;html=1;align=center;verticalAlign=middle;resizable=0;points=[];autosize=1;strokeColor=none;fillColor=none;" vertex="1" parent="1">
          <mxGeometry x="1075" y="747.53" width="40" height="30" as="geometry" />
        </mxCell>
        <mxCell id="cY8kMOldSic-Vgdh4lLR-134" style="edgeStyle=orthogonalEdgeStyle;rounded=0;orthogonalLoop=1;jettySize=auto;html=1;entryX=0.095;entryY=0.248;entryDx=0;entryDy=0;entryPerimeter=0;endArrow=classic;endFill=1;startArrow=none;startFill=0;" edge="1" parent="1" source="cY8kMOldSic-Vgdh4lLR-336" target="cY8kMOldSic-Vgdh4lLR-133">
          <mxGeometry relative="1" as="geometry" />
        </mxCell>
        <mxCell id="cY8kMOldSic-Vgdh4lLR-122" value="&lt;font style=&quot;font-size: 15px;&quot;&gt;br&lt;/font&gt;" style="text;html=1;align=center;verticalAlign=middle;resizable=0;points=[];autosize=1;strokeColor=none;fillColor=none;" vertex="1" parent="1">
          <mxGeometry x="1075" y="787.53" width="40" height="30" as="geometry" />
        </mxCell>
        <mxCell id="cY8kMOldSic-Vgdh4lLR-135" style="edgeStyle=orthogonalEdgeStyle;rounded=0;orthogonalLoop=1;jettySize=auto;html=1;entryX=0.75;entryY=1;entryDx=0;entryDy=0;" edge="1" parent="1" source="cY8kMOldSic-Vgdh4lLR-137" target="cY8kMOldSic-Vgdh4lLR-141">
          <mxGeometry relative="1" as="geometry">
            <mxPoint x="1270" y="560" as="targetPoint" />
            <Array as="points">
              <mxPoint x="1200" y="843" />
              <mxPoint x="1200" y="737" />
            </Array>
          </mxGeometry>
        </mxCell>
        <mxCell id="cY8kMOldSic-Vgdh4lLR-143" value="&lt;font style=&quot;font-size: 15px;&quot;&gt;sign_ext_d[11:0]&lt;/font&gt;" style="edgeLabel;html=1;align=center;verticalAlign=middle;resizable=0;points=[];" vertex="1" connectable="0" parent="cY8kMOldSic-Vgdh4lLR-135">
          <mxGeometry x="0.0593" y="-2" relative="1" as="geometry">
            <mxPoint x="-55" y="-9" as="offset" />
          </mxGeometry>
        </mxCell>
        <mxCell id="cY8kMOldSic-Vgdh4lLR-126" value="" style="edgeStyle=orthogonalEdgeStyle;rounded=0;orthogonalLoop=1;jettySize=auto;html=1;exitX=1;exitY=0.5;exitDx=0;exitDy=0;entryDx=0;entryDy=0;endArrow=none;endFill=0;" edge="1" parent="1" source="cY8kMOldSic-Vgdh4lLR-26" target="cY8kMOldSic-Vgdh4lLR-127">
          <mxGeometry relative="1" as="geometry">
            <mxPoint x="1045" y="1240" as="targetPoint" />
            <mxPoint x="760" y="760" as="sourcePoint" />
            <Array as="points">
              <mxPoint x="827" y="760" />
            </Array>
          </mxGeometry>
        </mxCell>
        <mxCell id="cY8kMOldSic-Vgdh4lLR-128" style="edgeStyle=orthogonalEdgeStyle;rounded=0;orthogonalLoop=1;jettySize=auto;html=1;entryX=0;entryY=0.5;entryDx=0;entryDy=0;" edge="1" parent="1" source="cY8kMOldSic-Vgdh4lLR-127" target="cY8kMOldSic-Vgdh4lLR-155">
          <mxGeometry relative="1" as="geometry">
            <mxPoint x="1045" y="992.53" as="targetPoint" />
            <Array as="points">
              <mxPoint x="827" y="1000" />
            </Array>
          </mxGeometry>
        </mxCell>
        <mxCell id="cY8kMOldSic-Vgdh4lLR-129" value="&lt;font style=&quot;font-size: 16px;&quot;&gt;ir[7:0]&lt;/font&gt;" style="edgeLabel;html=1;align=center;verticalAlign=middle;resizable=0;points=[];" vertex="1" connectable="0" parent="cY8kMOldSic-Vgdh4lLR-128">
          <mxGeometry x="0.0948" y="-1" relative="1" as="geometry">
            <mxPoint x="29" y="-1" as="offset" />
          </mxGeometry>
        </mxCell>
        <mxCell id="cY8kMOldSic-Vgdh4lLR-127" value="" style="shape=waypoint;sketch=0;fillStyle=solid;size=6;pointerEvents=1;points=[];fillColor=none;resizable=0;rotatable=0;perimeter=centerPerimeter;snapToPoint=1;" vertex="1" parent="1">
          <mxGeometry x="817" y="990" width="20" height="20" as="geometry" />
        </mxCell>
        <mxCell id="cY8kMOldSic-Vgdh4lLR-258" style="edgeStyle=orthogonalEdgeStyle;rounded=0;orthogonalLoop=1;jettySize=auto;html=1;entryX=0;entryY=1;entryDx=0;entryDy=0;" edge="1" parent="1" source="cY8kMOldSic-Vgdh4lLR-131" target="cY8kMOldSic-Vgdh4lLR-255">
          <mxGeometry relative="1" as="geometry" />
        </mxCell>
        <mxCell id="cY8kMOldSic-Vgdh4lLR-131" value="&lt;font style=&quot;font-size: 16px;&quot;&gt;ar&lt;/font&gt;" style="rounded=0;whiteSpace=wrap;html=1;" vertex="1" parent="1">
          <mxGeometry x="1600" y="742.53" width="40" height="40" as="geometry" />
        </mxCell>
        <mxCell id="cY8kMOldSic-Vgdh4lLR-139" style="edgeStyle=orthogonalEdgeStyle;rounded=0;orthogonalLoop=1;jettySize=auto;html=1;exitX=0;exitY=0.5;exitDx=0;exitDy=0;entryX=0.943;entryY=0.244;entryDx=0;entryDy=0;entryPerimeter=0;endArrow=none;endFill=0;startArrow=classicThin;startFill=1;" edge="1" parent="1" source="cY8kMOldSic-Vgdh4lLR-132" target="cY8kMOldSic-Vgdh4lLR-133">
          <mxGeometry relative="1" as="geometry" />
        </mxCell>
        <mxCell id="cY8kMOldSic-Vgdh4lLR-257" style="edgeStyle=orthogonalEdgeStyle;rounded=0;orthogonalLoop=1;jettySize=auto;html=1;exitX=1;exitY=0.5;exitDx=0;exitDy=0;entryX=0;entryY=0;entryDx=0;entryDy=0;" edge="1" parent="1" source="cY8kMOldSic-Vgdh4lLR-132" target="cY8kMOldSic-Vgdh4lLR-256">
          <mxGeometry relative="1" as="geometry">
            <Array as="points">
              <mxPoint x="1640" y="799" />
            </Array>
          </mxGeometry>
        </mxCell>
        <mxCell id="cY8kMOldSic-Vgdh4lLR-132" value="&lt;font style=&quot;font-size: 16px;&quot;&gt;br&lt;/font&gt;" style="rounded=0;whiteSpace=wrap;html=1;" vertex="1" parent="1">
          <mxGeometry x="1600" y="782.53" width="40" height="40" as="geometry" />
        </mxCell>
        <mxCell id="cY8kMOldSic-Vgdh4lLR-133" value="0&lt;br&gt;&lt;br&gt;1" style="ellipse;whiteSpace=wrap;html=1;" vertex="1" parent="1">
          <mxGeometry x="1280" y="782.53" width="40" height="80" as="geometry" />
        </mxCell>
        <mxCell id="cY8kMOldSic-Vgdh4lLR-136" value="" style="edgeStyle=orthogonalEdgeStyle;rounded=0;orthogonalLoop=1;jettySize=auto;html=1;endArrow=none;endFill=0;exitX=1.012;exitY=0.389;exitDx=0;exitDy=0;exitPerimeter=0;" edge="1" parent="1" source="cY8kMOldSic-Vgdh4lLR-155" target="cY8kMOldSic-Vgdh4lLR-137">
          <mxGeometry relative="1" as="geometry">
            <mxPoint x="1230" y="722.53" as="targetPoint" />
            <mxPoint x="1165" y="972.53" as="sourcePoint" />
            <Array as="points">
              <mxPoint x="1200" y="993" />
            </Array>
          </mxGeometry>
        </mxCell>
        <mxCell id="cY8kMOldSic-Vgdh4lLR-140" value="&lt;font style=&quot;font-size: 15px;&quot;&gt;sign_ext_d&lt;/font&gt;" style="edgeLabel;html=1;align=center;verticalAlign=middle;resizable=0;points=[];" vertex="1" connectable="0" parent="cY8kMOldSic-Vgdh4lLR-136">
          <mxGeometry x="-0.6745" y="-2" relative="1" as="geometry">
            <mxPoint x="42" y="-20" as="offset" />
          </mxGeometry>
        </mxCell>
        <mxCell id="cY8kMOldSic-Vgdh4lLR-138" style="edgeStyle=orthogonalEdgeStyle;rounded=0;orthogonalLoop=1;jettySize=auto;html=1;entryX=0.11;entryY=0.748;entryDx=0;entryDy=0;entryPerimeter=0;" edge="1" parent="1" source="cY8kMOldSic-Vgdh4lLR-137" target="cY8kMOldSic-Vgdh4lLR-133">
          <mxGeometry relative="1" as="geometry">
            <Array as="points">
              <mxPoint x="1200" y="842" />
            </Array>
          </mxGeometry>
        </mxCell>
        <mxCell id="cY8kMOldSic-Vgdh4lLR-137" value="" style="shape=waypoint;sketch=0;fillStyle=solid;size=6;pointerEvents=1;points=[];fillColor=none;resizable=0;rotatable=0;perimeter=centerPerimeter;snapToPoint=1;" vertex="1" parent="1">
          <mxGeometry x="1190" y="830" width="20" height="20" as="geometry" />
        </mxCell>
        <mxCell id="cY8kMOldSic-Vgdh4lLR-144" style="edgeStyle=orthogonalEdgeStyle;rounded=0;orthogonalLoop=1;jettySize=auto;html=1;exitX=0.5;exitY=0;exitDx=0;exitDy=0;entryX=0;entryY=0.5;entryDx=0;entryDy=0;" edge="1" parent="1" source="cY8kMOldSic-Vgdh4lLR-141" target="cY8kMOldSic-Vgdh4lLR-145">
          <mxGeometry relative="1" as="geometry">
            <mxPoint x="1525" y="714.9473684210527" as="targetPoint" />
            <Array as="points">
              <mxPoint x="1450" y="720" />
            </Array>
          </mxGeometry>
        </mxCell>
        <mxCell id="cY8kMOldSic-Vgdh4lLR-141" value="&lt;span style=&quot;font-size: 15px;&quot;&gt;Add&lt;/span&gt;" style="shape=trapezoid;perimeter=trapezoidPerimeter;whiteSpace=wrap;html=1;fixedSize=1;rotation=90;" vertex="1" parent="1">
          <mxGeometry x="1380" y="690" width="90" height="50" as="geometry" />
        </mxCell>
        <mxCell id="cY8kMOldSic-Vgdh4lLR-145" value="&lt;font style=&quot;font-size: 16px;&quot;&gt;pre_&lt;br&gt;bt&lt;/font&gt;" style="rounded=0;whiteSpace=wrap;html=1;" vertex="1" parent="1">
          <mxGeometry x="1600" y="700" width="40" height="40" as="geometry" />
        </mxCell>
        <mxCell id="cY8kMOldSic-Vgdh4lLR-146" value="" style="edgeStyle=orthogonalEdgeStyle;rounded=0;orthogonalLoop=1;jettySize=auto;html=1;entryDx=0;entryDy=0;entryPerimeter=0;endArrow=none;endFill=0;" edge="1" parent="1" source="cY8kMOldSic-Vgdh4lLR-63" target="cY8kMOldSic-Vgdh4lLR-147">
          <mxGeometry relative="1" as="geometry">
            <mxPoint x="760" y="645" as="sourcePoint" />
            <mxPoint x="1276" y="700" as="targetPoint" />
            <Array as="points">
              <mxPoint x="820" y="648" />
              <mxPoint x="820" y="648" />
            </Array>
          </mxGeometry>
        </mxCell>
        <mxCell id="cY8kMOldSic-Vgdh4lLR-148" style="edgeStyle=orthogonalEdgeStyle;rounded=0;orthogonalLoop=1;jettySize=auto;html=1;entryX=0;entryY=0.5;entryDx=0;entryDy=0;" edge="1" parent="1" source="cY8kMOldSic-Vgdh4lLR-147" target="cY8kMOldSic-Vgdh4lLR-149">
          <mxGeometry relative="1" as="geometry">
            <mxPoint x="1400" y="648" as="targetPoint" />
            <Array as="points">
              <mxPoint x="1020" y="650" />
            </Array>
          </mxGeometry>
        </mxCell>
        <mxCell id="cY8kMOldSic-Vgdh4lLR-147" value="" style="shape=waypoint;sketch=0;fillStyle=solid;size=6;pointerEvents=1;points=[];fillColor=none;resizable=0;rotatable=0;perimeter=centerPerimeter;snapToPoint=1;" vertex="1" parent="1">
          <mxGeometry x="1010" y="638" width="20" height="20" as="geometry" />
        </mxCell>
        <mxCell id="cY8kMOldSic-Vgdh4lLR-302" style="edgeStyle=orthogonalEdgeStyle;rounded=0;orthogonalLoop=1;jettySize=auto;html=1;entryX=0;entryY=1;entryDx=0;entryDy=0;" edge="1" parent="1" source="cY8kMOldSic-Vgdh4lLR-149" target="cY8kMOldSic-Vgdh4lLR-301">
          <mxGeometry relative="1" as="geometry">
            <Array as="points">
              <mxPoint x="1700" y="648" />
              <mxPoint x="1700" y="648" />
            </Array>
          </mxGeometry>
        </mxCell>
        <mxCell id="cY8kMOldSic-Vgdh4lLR-149" value="&lt;span style=&quot;font-size: 16px;&quot;&gt;pc&lt;br&gt;plus1&lt;/span&gt;" style="rounded=0;whiteSpace=wrap;html=1;strokeColor=#FF3333;" vertex="1" parent="1">
          <mxGeometry x="1600" y="630" width="40" height="40" as="geometry" />
        </mxCell>
        <mxCell id="cY8kMOldSic-Vgdh4lLR-290" style="edgeStyle=orthogonalEdgeStyle;rounded=0;orthogonalLoop=1;jettySize=auto;html=1;entryX=0;entryY=0.75;entryDx=0;entryDy=0;" edge="1" parent="1" source="cY8kMOldSic-Vgdh4lLR-153" target="cY8kMOldSic-Vgdh4lLR-289">
          <mxGeometry relative="1" as="geometry" />
        </mxCell>
        <mxCell id="cY8kMOldSic-Vgdh4lLR-153" value="&lt;span style=&quot;font-size: 16px;&quot;&gt;pbr&lt;/span&gt;" style="rounded=0;whiteSpace=wrap;html=1;" vertex="1" parent="1">
          <mxGeometry x="1600" y="505" width="40" height="40" as="geometry" />
        </mxCell>
        <mxCell id="cY8kMOldSic-Vgdh4lLR-154" value="&lt;font style=&quot;font-size: 15px;&quot;&gt;&amp;nbsp; &amp;nbsp;Forwarding&lt;/font&gt;" style="rounded=1;whiteSpace=wrap;html=1;" vertex="1" parent="1">
          <mxGeometry x="1000" y="1120" width="120" height="120" as="geometry" />
        </mxCell>
        <mxCell id="cY8kMOldSic-Vgdh4lLR-155" value="&lt;font style=&quot;font-size: 18px;&quot;&gt;SignExtend&lt;/font&gt;" style="rounded=1;whiteSpace=wrap;html=1;" vertex="1" parent="1">
          <mxGeometry x="998.63" y="970" width="120" height="60" as="geometry" />
        </mxCell>
        <mxCell id="cY8kMOldSic-Vgdh4lLR-208" style="edgeStyle=orthogonalEdgeStyle;rounded=0;orthogonalLoop=1;jettySize=auto;html=1;" edge="1" parent="1" source="cY8kMOldSic-Vgdh4lLR-157">
          <mxGeometry relative="1" as="geometry">
            <mxPoint x="1600" y="1070" as="targetPoint" />
          </mxGeometry>
        </mxCell>
        <mxCell id="cY8kMOldSic-Vgdh4lLR-157" value="&lt;font style=&quot;font-size: 18px;&quot;&gt;ALUControl&lt;/font&gt;" style="rounded=1;whiteSpace=wrap;html=1;" vertex="1" parent="1">
          <mxGeometry x="998.63" y="1040" width="120" height="60" as="geometry" />
        </mxCell>
        <mxCell id="cY8kMOldSic-Vgdh4lLR-159" style="edgeStyle=orthogonalEdgeStyle;rounded=0;orthogonalLoop=1;jettySize=auto;html=1;entryX=0.125;entryY=0.416;entryDx=0;entryDy=0;entryPerimeter=0;" edge="1" parent="1" source="cY8kMOldSic-Vgdh4lLR-158" target="cY8kMOldSic-Vgdh4lLR-113">
          <mxGeometry relative="1" as="geometry" />
        </mxCell>
        <mxCell id="cY8kMOldSic-Vgdh4lLR-162" value="&lt;font style=&quot;font-size: 15px;&quot;&gt;ir[10:8]&lt;/font&gt;" style="edgeLabel;html=1;align=center;verticalAlign=middle;resizable=0;points=[];" vertex="1" connectable="0" parent="cY8kMOldSic-Vgdh4lLR-159">
          <mxGeometry x="0.1609" relative="1" as="geometry">
            <mxPoint as="offset" />
          </mxGeometry>
        </mxCell>
        <mxCell id="cY8kMOldSic-Vgdh4lLR-207" style="edgeStyle=orthogonalEdgeStyle;rounded=0;orthogonalLoop=1;jettySize=auto;html=1;entryX=0;entryY=0.25;entryDx=0;entryDy=0;" edge="1" parent="1" source="cY8kMOldSic-Vgdh4lLR-246" target="cY8kMOldSic-Vgdh4lLR-203">
          <mxGeometry relative="1" as="geometry">
            <mxPoint x="830" y="168.2608695652174" as="targetPoint" />
            <Array as="points">
              <mxPoint x="827" y="174" />
            </Array>
          </mxGeometry>
        </mxCell>
        <mxCell id="cY8kMOldSic-Vgdh4lLR-158" value="" style="shape=waypoint;sketch=0;fillStyle=solid;size=6;pointerEvents=1;points=[];fillColor=none;resizable=0;rotatable=0;perimeter=centerPerimeter;snapToPoint=1;" vertex="1" parent="1">
          <mxGeometry x="817" y="750" width="20" height="20" as="geometry" />
        </mxCell>
        <mxCell id="cY8kMOldSic-Vgdh4lLR-161" style="edgeStyle=orthogonalEdgeStyle;rounded=0;orthogonalLoop=1;jettySize=auto;html=1;entryX=0.021;entryY=0.493;entryDx=0;entryDy=0;entryPerimeter=0;" edge="1" parent="1" source="cY8kMOldSic-Vgdh4lLR-160" target="cY8kMOldSic-Vgdh4lLR-114">
          <mxGeometry relative="1" as="geometry" />
        </mxCell>
        <mxCell id="cY8kMOldSic-Vgdh4lLR-163" value="&lt;font style=&quot;font-size: 15px;&quot;&gt;ir[13:11]&lt;/font&gt;" style="edgeLabel;html=1;align=center;verticalAlign=middle;resizable=0;points=[];" vertex="1" connectable="0" parent="cY8kMOldSic-Vgdh4lLR-161">
          <mxGeometry x="0.2671" y="2" relative="1" as="geometry">
            <mxPoint as="offset" />
          </mxGeometry>
        </mxCell>
        <mxCell id="cY8kMOldSic-Vgdh4lLR-160" value="" style="shape=waypoint;sketch=0;fillStyle=solid;size=6;pointerEvents=1;points=[];fillColor=none;resizable=0;rotatable=0;perimeter=centerPerimeter;snapToPoint=1;" vertex="1" parent="1">
          <mxGeometry x="817" y="783" width="20" height="20" as="geometry" />
        </mxCell>
        <mxCell id="cY8kMOldSic-Vgdh4lLR-167" style="edgeStyle=orthogonalEdgeStyle;rounded=0;orthogonalLoop=1;jettySize=auto;html=1;entryX=0.107;entryY=0.253;entryDx=0;entryDy=0;entryPerimeter=0;" edge="1" parent="1" source="cY8kMOldSic-Vgdh4lLR-164" target="cY8kMOldSic-Vgdh4lLR-166">
          <mxGeometry relative="1" as="geometry" />
        </mxCell>
        <mxCell id="cY8kMOldSic-Vgdh4lLR-171" value="&lt;font style=&quot;font-size: 15px;&quot;&gt;ir[10:8]&lt;/font&gt;" style="edgeLabel;html=1;align=center;verticalAlign=middle;resizable=0;points=[];" vertex="1" connectable="0" parent="cY8kMOldSic-Vgdh4lLR-167">
          <mxGeometry x="0.8717" relative="1" as="geometry">
            <mxPoint x="-2" as="offset" />
          </mxGeometry>
        </mxCell>
        <mxCell id="cY8kMOldSic-Vgdh4lLR-164" value="" style="shape=waypoint;sketch=0;fillStyle=solid;size=6;pointerEvents=1;points=[];fillColor=none;resizable=0;rotatable=0;perimeter=centerPerimeter;snapToPoint=1;" vertex="1" parent="1">
          <mxGeometry x="817" y="910" width="20" height="20" as="geometry" />
        </mxCell>
        <mxCell id="cY8kMOldSic-Vgdh4lLR-172" style="edgeStyle=orthogonalEdgeStyle;rounded=0;orthogonalLoop=1;jettySize=auto;html=1;" edge="1" parent="1" source="cY8kMOldSic-Vgdh4lLR-166">
          <mxGeometry relative="1" as="geometry">
            <mxPoint x="1600" y="940" as="targetPoint" />
          </mxGeometry>
        </mxCell>
        <mxCell id="cY8kMOldSic-Vgdh4lLR-232" style="edgeStyle=orthogonalEdgeStyle;rounded=0;orthogonalLoop=1;jettySize=auto;html=1;endArrow=none;endFill=0;" edge="1" parent="1" source="cY8kMOldSic-Vgdh4lLR-166">
          <mxGeometry relative="1" as="geometry">
            <mxPoint x="1340" y="230" as="targetPoint" />
          </mxGeometry>
        </mxCell>
        <mxCell id="cY8kMOldSic-Vgdh4lLR-234" value="&lt;font style=&quot;font-size: 15px;&quot;&gt;regdst&lt;/font&gt;" style="edgeLabel;html=1;align=center;verticalAlign=middle;resizable=0;points=[];" vertex="1" connectable="0" parent="cY8kMOldSic-Vgdh4lLR-232">
          <mxGeometry x="-0.9284" relative="1" as="geometry">
            <mxPoint as="offset" />
          </mxGeometry>
        </mxCell>
        <mxCell id="cY8kMOldSic-Vgdh4lLR-166" value="0&lt;br&gt;&lt;br&gt;1" style="ellipse;whiteSpace=wrap;html=1;" vertex="1" parent="1">
          <mxGeometry x="1320" y="900" width="40" height="80" as="geometry" />
        </mxCell>
        <mxCell id="cY8kMOldSic-Vgdh4lLR-169" style="edgeStyle=orthogonalEdgeStyle;rounded=0;orthogonalLoop=1;jettySize=auto;html=1;entryX=0;entryY=1;entryDx=0;entryDy=0;" edge="1" parent="1" source="cY8kMOldSic-Vgdh4lLR-168" target="cY8kMOldSic-Vgdh4lLR-166">
          <mxGeometry relative="1" as="geometry">
            <Array as="points">
              <mxPoint x="1260" y="968" />
            </Array>
          </mxGeometry>
        </mxCell>
        <mxCell id="cY8kMOldSic-Vgdh4lLR-170" value="&lt;font style=&quot;font-size: 15px;&quot;&gt;ir[13:11]&lt;/font&gt;" style="edgeLabel;html=1;align=center;verticalAlign=middle;resizable=0;points=[];" vertex="1" connectable="0" parent="cY8kMOldSic-Vgdh4lLR-169">
          <mxGeometry x="0.2526" y="3" relative="1" as="geometry">
            <mxPoint as="offset" />
          </mxGeometry>
        </mxCell>
        <mxCell id="cY8kMOldSic-Vgdh4lLR-168" value="" style="shape=waypoint;sketch=0;fillStyle=solid;size=6;pointerEvents=1;points=[];fillColor=none;resizable=0;rotatable=0;perimeter=centerPerimeter;snapToPoint=1;" vertex="1" parent="1">
          <mxGeometry x="1250" y="910" width="20" height="20" as="geometry" />
        </mxCell>
        <mxCell id="cY8kMOldSic-Vgdh4lLR-202" style="edgeStyle=orthogonalEdgeStyle;rounded=0;orthogonalLoop=1;jettySize=auto;html=1;endArrow=none;endFill=0;" edge="1" parent="1" source="cY8kMOldSic-Vgdh4lLR-343" target="cY8kMOldSic-Vgdh4lLR-238">
          <mxGeometry relative="1" as="geometry">
            <mxPoint x="920" y="1240" as="targetPoint" />
            <Array as="points">
              <mxPoint x="1700" y="940" />
              <mxPoint x="1700" y="1340" />
              <mxPoint x="920" y="1340" />
            </Array>
          </mxGeometry>
        </mxCell>
        <mxCell id="cY8kMOldSic-Vgdh4lLR-173" value="&lt;font style=&quot;font-size: 16px;&quot;&gt;rw&lt;/font&gt;" style="rounded=0;whiteSpace=wrap;html=1;" vertex="1" parent="1">
          <mxGeometry x="1600" y="920" width="40" height="40" as="geometry" />
        </mxCell>
        <mxCell id="cY8kMOldSic-Vgdh4lLR-174" value="&lt;span style=&quot;font-size: 14px;&quot;&gt;ir&lt;/span&gt;" style="text;html=1;align=center;verticalAlign=middle;resizable=0;points=[];autosize=1;strokeColor=none;fillColor=none;" vertex="1" parent="1">
          <mxGeometry x="1005" y="1130" width="30" height="30" as="geometry" />
        </mxCell>
        <mxCell id="cY8kMOldSic-Vgdh4lLR-176" value="" style="edgeStyle=orthogonalEdgeStyle;rounded=0;orthogonalLoop=1;jettySize=auto;html=1;exitDx=0;exitDy=0;entryDx=0;entryDy=0;endArrow=none;endFill=0;" edge="1" parent="1" source="cY8kMOldSic-Vgdh4lLR-127" target="cY8kMOldSic-Vgdh4lLR-177">
          <mxGeometry relative="1" as="geometry">
            <mxPoint x="999" y="1055" as="targetPoint" />
            <mxPoint x="827" y="1000" as="sourcePoint" />
            <Array as="points" />
          </mxGeometry>
        </mxCell>
        <mxCell id="cY8kMOldSic-Vgdh4lLR-180" style="edgeStyle=orthogonalEdgeStyle;rounded=0;orthogonalLoop=1;jettySize=auto;html=1;entryX=0;entryY=0.5;entryDx=0;entryDy=0;" edge="1" parent="1" source="cY8kMOldSic-Vgdh4lLR-177" target="cY8kMOldSic-Vgdh4lLR-157">
          <mxGeometry relative="1" as="geometry">
            <Array as="points">
              <mxPoint x="827" y="1070" />
            </Array>
          </mxGeometry>
        </mxCell>
        <mxCell id="cY8kMOldSic-Vgdh4lLR-185" style="edgeStyle=orthogonalEdgeStyle;rounded=0;orthogonalLoop=1;jettySize=auto;html=1;endArrow=none;endFill=0;" edge="1" parent="1" source="cY8kMOldSic-Vgdh4lLR-177">
          <mxGeometry relative="1" as="geometry">
            <mxPoint x="827" y="1145" as="targetPoint" />
          </mxGeometry>
        </mxCell>
        <mxCell id="cY8kMOldSic-Vgdh4lLR-177" value="" style="shape=waypoint;sketch=0;fillStyle=solid;size=6;pointerEvents=1;points=[];fillColor=none;resizable=0;rotatable=0;perimeter=centerPerimeter;snapToPoint=1;" vertex="1" parent="1">
          <mxGeometry x="817" y="1060" width="20" height="20" as="geometry" />
        </mxCell>
        <mxCell id="cY8kMOldSic-Vgdh4lLR-182" style="edgeStyle=orthogonalEdgeStyle;rounded=0;orthogonalLoop=1;jettySize=auto;html=1;entryX=0;entryY=0.5;entryDx=0;entryDy=0;entryPerimeter=0;" edge="1" parent="1" target="cY8kMOldSic-Vgdh4lLR-174">
          <mxGeometry relative="1" as="geometry">
            <mxPoint x="827" y="1145" as="sourcePoint" />
          </mxGeometry>
        </mxCell>
        <mxCell id="cY8kMOldSic-Vgdh4lLR-184" value="&lt;font style=&quot;font-size: 15px;&quot;&gt;ID_rw&lt;/font&gt;" style="text;html=1;align=center;verticalAlign=middle;resizable=0;points=[];autosize=1;strokeColor=none;fillColor=none;" vertex="1" parent="1">
          <mxGeometry x="998.63" y="1185" width="60" height="30" as="geometry" />
        </mxCell>
        <mxCell id="cY8kMOldSic-Vgdh4lLR-189" value="&lt;font style=&quot;font-size: 15px;&quot;&gt;EX_rw&lt;/font&gt;" style="text;html=1;align=center;verticalAlign=middle;resizable=0;points=[];autosize=1;strokeColor=none;fillColor=none;" vertex="1" parent="1">
          <mxGeometry x="995" y="1210" width="70" height="30" as="geometry" />
        </mxCell>
        <mxCell id="cY8kMOldSic-Vgdh4lLR-198" style="edgeStyle=orthogonalEdgeStyle;rounded=0;orthogonalLoop=1;jettySize=auto;html=1;" edge="1" parent="1" source="cY8kMOldSic-Vgdh4lLR-196">
          <mxGeometry relative="1" as="geometry">
            <mxPoint x="1600" y="1150" as="targetPoint" />
          </mxGeometry>
        </mxCell>
        <mxCell id="cY8kMOldSic-Vgdh4lLR-196" value="&lt;span style=&quot;font-size: 14px;&quot;&gt;forwardA&lt;/span&gt;" style="text;html=1;align=center;verticalAlign=middle;resizable=0;points=[];autosize=1;strokeColor=none;fillColor=none;" vertex="1" parent="1">
          <mxGeometry x="1040" y="1135" width="80" height="30" as="geometry" />
        </mxCell>
        <mxCell id="cY8kMOldSic-Vgdh4lLR-199" style="edgeStyle=orthogonalEdgeStyle;rounded=0;orthogonalLoop=1;jettySize=auto;html=1;" edge="1" parent="1" source="cY8kMOldSic-Vgdh4lLR-197">
          <mxGeometry relative="1" as="geometry">
            <mxPoint x="1600" y="1214.9999999999998" as="targetPoint" />
          </mxGeometry>
        </mxCell>
        <mxCell id="cY8kMOldSic-Vgdh4lLR-197" value="&lt;span style=&quot;font-size: 14px;&quot;&gt;forwardB&lt;/span&gt;" style="text;html=1;align=center;verticalAlign=middle;resizable=0;points=[];autosize=1;strokeColor=none;fillColor=none;" vertex="1" parent="1">
          <mxGeometry x="1040" y="1200" width="80" height="30" as="geometry" />
        </mxCell>
        <mxCell id="cY8kMOldSic-Vgdh4lLR-265" style="edgeStyle=orthogonalEdgeStyle;rounded=0;orthogonalLoop=1;jettySize=auto;html=1;exitX=1;exitY=0.5;exitDx=0;exitDy=0;entryX=0.5;entryY=0;entryDx=0;entryDy=0;endArrow=none;endFill=0;" edge="1" parent="1" source="cY8kMOldSic-Vgdh4lLR-200" target="cY8kMOldSic-Vgdh4lLR-255">
          <mxGeometry relative="1" as="geometry">
            <mxPoint x="1880" y="670" as="targetPoint" />
            <Array as="points">
              <mxPoint x="1870" y="1160" />
              <mxPoint x="1870" y="670" />
              <mxPoint x="1940" y="670" />
            </Array>
          </mxGeometry>
        </mxCell>
        <mxCell id="cY8kMOldSic-Vgdh4lLR-200" value="&lt;span style=&quot;font-size: 16px;&quot;&gt;forw&lt;br&gt;ardA&lt;/span&gt;" style="rounded=0;whiteSpace=wrap;html=1;" vertex="1" parent="1">
          <mxGeometry x="1600" y="1130" width="40" height="60" as="geometry" />
        </mxCell>
        <mxCell id="cY8kMOldSic-Vgdh4lLR-266" style="edgeStyle=orthogonalEdgeStyle;rounded=0;orthogonalLoop=1;jettySize=auto;html=1;entryX=0.5;entryY=1;entryDx=0;entryDy=0;endArrow=none;endFill=0;" edge="1" parent="1" source="cY8kMOldSic-Vgdh4lLR-201" target="cY8kMOldSic-Vgdh4lLR-256">
          <mxGeometry relative="1" as="geometry" />
        </mxCell>
        <mxCell id="cY8kMOldSic-Vgdh4lLR-201" value="&lt;span style=&quot;font-size: 16px;&quot;&gt;forw&lt;br&gt;ardB&lt;/span&gt;" style="rounded=0;whiteSpace=wrap;html=1;" vertex="1" parent="1">
          <mxGeometry x="1600" y="1190" width="40" height="60" as="geometry" />
        </mxCell>
        <mxCell id="cY8kMOldSic-Vgdh4lLR-220" style="edgeStyle=orthogonalEdgeStyle;rounded=0;orthogonalLoop=1;jettySize=auto;html=1;exitDx=0;exitDy=0;entryX=0;entryY=0.5;entryDx=0;entryDy=0;" edge="1" parent="1" source="cY8kMOldSic-Vgdh4lLR-222" target="cY8kMOldSic-Vgdh4lLR-219">
          <mxGeometry relative="1" as="geometry">
            <mxPoint x="1530" y="160" as="targetPoint" />
            <Array as="points">
              <mxPoint x="1530" y="230" />
              <mxPoint x="1530" y="150" />
            </Array>
          </mxGeometry>
        </mxCell>
        <mxCell id="cY8kMOldSic-Vgdh4lLR-203" value="&lt;font style=&quot;font-size: 18px;&quot;&gt;Control&lt;/font&gt;" style="rounded=1;whiteSpace=wrap;html=1;" vertex="1" parent="1">
          <mxGeometry x="1005" y="120" width="155" height="215" as="geometry" />
        </mxCell>
        <mxCell id="cY8kMOldSic-Vgdh4lLR-346" style="edgeStyle=orthogonalEdgeStyle;rounded=0;orthogonalLoop=1;jettySize=auto;html=1;exitX=1;exitY=0.5;exitDx=0;exitDy=0;entryX=0;entryY=0;entryDx=0;entryDy=0;" edge="1" parent="1" source="cY8kMOldSic-Vgdh4lLR-205" target="cY8kMOldSic-Vgdh4lLR-289">
          <mxGeometry relative="1" as="geometry">
            <Array as="points">
              <mxPoint x="1640" y="390" />
              <mxPoint x="2200" y="390" />
            </Array>
          </mxGeometry>
        </mxCell>
        <mxCell id="cY8kMOldSic-Vgdh4lLR-205" value="&lt;font style=&quot;font-size: 18px;&quot;&gt;bt&lt;/font&gt;" style="rounded=0;whiteSpace=wrap;html=1;" vertex="1" parent="1">
          <mxGeometry x="1600" y="360" width="40" height="40" as="geometry" />
        </mxCell>
        <mxCell id="cY8kMOldSic-Vgdh4lLR-206" value="&lt;font style=&quot;font-size: 15px;&quot;&gt;ir&lt;/font&gt;" style="text;html=1;align=center;verticalAlign=middle;resizable=0;points=[];autosize=1;strokeColor=none;fillColor=none;" vertex="1" parent="1">
          <mxGeometry x="1005" y="160" width="30" height="30" as="geometry" />
        </mxCell>
        <mxCell id="cY8kMOldSic-Vgdh4lLR-264" style="edgeStyle=orthogonalEdgeStyle;rounded=0;orthogonalLoop=1;jettySize=auto;html=1;exitX=1;exitY=0.5;exitDx=0;exitDy=0;entryX=1;entryY=0.5;entryDx=0;entryDy=0;endArrow=none;endFill=0;" edge="1" parent="1" source="cY8kMOldSic-Vgdh4lLR-209" target="cY8kMOldSic-Vgdh4lLR-254">
          <mxGeometry relative="1" as="geometry" />
        </mxCell>
        <mxCell id="cY8kMOldSic-Vgdh4lLR-209" value="&lt;font style=&quot;font-size: 16px;&quot;&gt;op&lt;br&gt;code&lt;br&gt;&lt;/font&gt;" style="rounded=0;whiteSpace=wrap;html=1;" vertex="1" parent="1">
          <mxGeometry x="1600" y="1050" width="40" height="40" as="geometry" />
        </mxCell>
        <mxCell id="cY8kMOldSic-Vgdh4lLR-320" style="edgeStyle=orthogonalEdgeStyle;rounded=0;orthogonalLoop=1;jettySize=auto;html=1;exitX=1;exitY=0.5;exitDx=0;exitDy=0;entryX=0;entryY=0.5;entryDx=0;entryDy=0;" edge="1" parent="1" source="cY8kMOldSic-Vgdh4lLR-216" target="cY8kMOldSic-Vgdh4lLR-315">
          <mxGeometry relative="1" as="geometry" />
        </mxCell>
        <mxCell id="cY8kMOldSic-Vgdh4lLR-216" value="&lt;font style=&quot;font-size: 18px;&quot;&gt;mem&lt;br&gt;to&lt;br&gt;reg&lt;br&gt;&lt;/font&gt;" style="rounded=0;whiteSpace=wrap;html=1;" vertex="1" parent="1">
          <mxGeometry x="1600" y="180" width="40" height="60" as="geometry" />
        </mxCell>
        <mxCell id="cY8kMOldSic-Vgdh4lLR-321" style="edgeStyle=orthogonalEdgeStyle;rounded=0;orthogonalLoop=1;jettySize=auto;html=1;entryX=0;entryY=0.5;entryDx=0;entryDy=0;" edge="1" parent="1" source="cY8kMOldSic-Vgdh4lLR-217" target="cY8kMOldSic-Vgdh4lLR-316">
          <mxGeometry relative="1" as="geometry" />
        </mxCell>
        <mxCell id="cY8kMOldSic-Vgdh4lLR-217" value="&lt;font style=&quot;font-size: 18px;&quot;&gt;mem&lt;br&gt;write&lt;br&gt;&lt;/font&gt;" style="rounded=0;whiteSpace=wrap;html=1;" vertex="1" parent="1">
          <mxGeometry x="1600" y="240" width="40" height="60" as="geometry" />
        </mxCell>
        <mxCell id="cY8kMOldSic-Vgdh4lLR-325" style="edgeStyle=orthogonalEdgeStyle;rounded=0;orthogonalLoop=1;jettySize=auto;html=1;entryX=0;entryY=0.5;entryDx=0;entryDy=0;" edge="1" parent="1" source="cY8kMOldSic-Vgdh4lLR-218" target="cY8kMOldSic-Vgdh4lLR-317">
          <mxGeometry relative="1" as="geometry" />
        </mxCell>
        <mxCell id="cY8kMOldSic-Vgdh4lLR-218" value="&lt;font style=&quot;font-size: 18px;&quot;&gt;mem&lt;br&gt;read&lt;br&gt;&lt;/font&gt;" style="rounded=0;whiteSpace=wrap;html=1;" vertex="1" parent="1">
          <mxGeometry x="1600" y="300" width="40" height="60" as="geometry" />
        </mxCell>
        <mxCell id="cY8kMOldSic-Vgdh4lLR-319" style="edgeStyle=orthogonalEdgeStyle;rounded=0;orthogonalLoop=1;jettySize=auto;html=1;entryX=0;entryY=0.5;entryDx=0;entryDy=0;" edge="1" parent="1" source="cY8kMOldSic-Vgdh4lLR-219" target="cY8kMOldSic-Vgdh4lLR-318">
          <mxGeometry relative="1" as="geometry" />
        </mxCell>
        <mxCell id="cY8kMOldSic-Vgdh4lLR-219" value="&lt;font style=&quot;font-size: 18px;&quot;&gt;reg&lt;br&gt;write&lt;br&gt;&lt;/font&gt;" style="rounded=0;whiteSpace=wrap;html=1;" vertex="1" parent="1">
          <mxGeometry x="1600" y="120" width="40" height="60" as="geometry" />
        </mxCell>
        <mxCell id="cY8kMOldSic-Vgdh4lLR-221" value="" style="edgeStyle=orthogonalEdgeStyle;rounded=0;orthogonalLoop=1;jettySize=auto;html=1;exitDx=0;exitDy=0;entryDx=0;entryDy=0;endArrow=none;endFill=0;" edge="1" parent="1" source="cY8kMOldSic-Vgdh4lLR-229" target="cY8kMOldSic-Vgdh4lLR-222">
          <mxGeometry relative="1" as="geometry">
            <mxPoint x="1600" y="150" as="targetPoint" />
            <mxPoint x="1160" y="228" as="sourcePoint" />
            <Array as="points">
              <mxPoint x="1530" y="230" />
            </Array>
          </mxGeometry>
        </mxCell>
        <mxCell id="cY8kMOldSic-Vgdh4lLR-223" style="edgeStyle=orthogonalEdgeStyle;rounded=0;orthogonalLoop=1;jettySize=auto;html=1;entryX=0;entryY=0.5;entryDx=0;entryDy=0;" edge="1" parent="1" source="cY8kMOldSic-Vgdh4lLR-222" target="cY8kMOldSic-Vgdh4lLR-216">
          <mxGeometry relative="1" as="geometry" />
        </mxCell>
        <mxCell id="cY8kMOldSic-Vgdh4lLR-222" value="" style="shape=waypoint;sketch=0;fillStyle=solid;size=6;pointerEvents=1;points=[];fillColor=none;resizable=0;rotatable=0;perimeter=centerPerimeter;snapToPoint=1;" vertex="1" parent="1">
          <mxGeometry x="1520" y="200" width="20" height="20" as="geometry" />
        </mxCell>
        <mxCell id="cY8kMOldSic-Vgdh4lLR-225" style="edgeStyle=orthogonalEdgeStyle;rounded=0;orthogonalLoop=1;jettySize=auto;html=1;entryX=0;entryY=0.5;entryDx=0;entryDy=0;" edge="1" parent="1" source="cY8kMOldSic-Vgdh4lLR-224" target="cY8kMOldSic-Vgdh4lLR-218">
          <mxGeometry relative="1" as="geometry">
            <Array as="points">
              <mxPoint x="1530" y="330" />
            </Array>
          </mxGeometry>
        </mxCell>
        <mxCell id="cY8kMOldSic-Vgdh4lLR-226" style="edgeStyle=orthogonalEdgeStyle;rounded=0;orthogonalLoop=1;jettySize=auto;html=1;entryX=0;entryY=0.5;entryDx=0;entryDy=0;" edge="1" parent="1" source="cY8kMOldSic-Vgdh4lLR-224" target="cY8kMOldSic-Vgdh4lLR-217">
          <mxGeometry relative="1" as="geometry" />
        </mxCell>
        <mxCell id="cY8kMOldSic-Vgdh4lLR-227" style="edgeStyle=orthogonalEdgeStyle;rounded=0;orthogonalLoop=1;jettySize=auto;html=1;endArrow=none;endFill=0;" edge="1" parent="1" source="cY8kMOldSic-Vgdh4lLR-224">
          <mxGeometry relative="1" as="geometry">
            <mxPoint x="1530" y="230" as="targetPoint" />
          </mxGeometry>
        </mxCell>
        <mxCell id="cY8kMOldSic-Vgdh4lLR-224" value="" style="shape=waypoint;sketch=0;fillStyle=solid;size=6;pointerEvents=1;points=[];fillColor=none;resizable=0;rotatable=0;perimeter=centerPerimeter;snapToPoint=1;" vertex="1" parent="1">
          <mxGeometry x="1520" y="260" width="20" height="20" as="geometry" />
        </mxCell>
        <mxCell id="cY8kMOldSic-Vgdh4lLR-228" value="" style="edgeStyle=orthogonalEdgeStyle;rounded=0;orthogonalLoop=1;jettySize=auto;html=1;exitX=1;exitY=0.5;exitDx=0;exitDy=0;entryDx=0;entryDy=0;endArrow=none;endFill=0;" edge="1" parent="1" source="cY8kMOldSic-Vgdh4lLR-203" target="cY8kMOldSic-Vgdh4lLR-229">
          <mxGeometry relative="1" as="geometry">
            <mxPoint x="1530" y="210" as="targetPoint" />
            <mxPoint x="1160" y="228" as="sourcePoint" />
            <Array as="points">
              <mxPoint x="1160" y="230" />
            </Array>
          </mxGeometry>
        </mxCell>
        <mxCell id="cY8kMOldSic-Vgdh4lLR-230" style="edgeStyle=orthogonalEdgeStyle;rounded=0;orthogonalLoop=1;jettySize=auto;html=1;entryX=0.5;entryY=0;entryDx=0;entryDy=0;endArrow=none;endFill=0;" edge="1" parent="1" source="cY8kMOldSic-Vgdh4lLR-229" target="cY8kMOldSic-Vgdh4lLR-133">
          <mxGeometry relative="1" as="geometry">
            <Array as="points">
              <mxPoint x="1300" y="230" />
            </Array>
          </mxGeometry>
        </mxCell>
        <mxCell id="cY8kMOldSic-Vgdh4lLR-231" value="&lt;font style=&quot;font-size: 15px;&quot;&gt;alusrc&lt;/font&gt;" style="edgeLabel;html=1;align=center;verticalAlign=middle;resizable=0;points=[];" vertex="1" connectable="0" parent="cY8kMOldSic-Vgdh4lLR-230">
          <mxGeometry x="0.3339" y="-1" relative="1" as="geometry">
            <mxPoint as="offset" />
          </mxGeometry>
        </mxCell>
        <mxCell id="cY8kMOldSic-Vgdh4lLR-229" value="" style="shape=waypoint;sketch=0;fillStyle=solid;size=6;pointerEvents=1;points=[];fillColor=none;resizable=0;rotatable=0;perimeter=centerPerimeter;snapToPoint=1;" vertex="1" parent="1">
          <mxGeometry x="1290" y="220" width="20" height="20" as="geometry" />
        </mxCell>
        <mxCell id="cY8kMOldSic-Vgdh4lLR-233" value="" style="shape=waypoint;sketch=0;fillStyle=solid;size=6;pointerEvents=1;points=[];fillColor=none;resizable=0;rotatable=0;perimeter=centerPerimeter;snapToPoint=1;" vertex="1" parent="1">
          <mxGeometry x="1330" y="220" width="20" height="20" as="geometry" />
        </mxCell>
        <mxCell id="cY8kMOldSic-Vgdh4lLR-235" value="&lt;font style=&quot;font-size: 15px;&quot;&gt;ID_regwrite,EX_regwrite&lt;/font&gt;" style="text;html=1;align=center;verticalAlign=middle;resizable=0;points=[];autosize=1;strokeColor=none;fillColor=none;" vertex="1" parent="1">
          <mxGeometry x="970" y="1280" width="190" height="30" as="geometry" />
        </mxCell>
        <mxCell id="cY8kMOldSic-Vgdh4lLR-236" value="" style="endArrow=none;html=1;rounded=0;" edge="1" parent="1">
          <mxGeometry width="50" height="50" relative="1" as="geometry">
            <mxPoint x="1060" y="1280" as="sourcePoint" />
            <mxPoint x="1060" y="1240" as="targetPoint" />
          </mxGeometry>
        </mxCell>
        <mxCell id="cY8kMOldSic-Vgdh4lLR-250" style="edgeStyle=orthogonalEdgeStyle;rounded=0;orthogonalLoop=1;jettySize=auto;html=1;exitX=0.25;exitY=0;exitDx=0;exitDy=0;endArrow=none;endFill=0;" edge="1" parent="1" source="cY8kMOldSic-Vgdh4lLR-237">
          <mxGeometry relative="1" as="geometry">
            <mxPoint x="750" y="240" as="targetPoint" />
            <Array as="points">
              <mxPoint x="1040" y="-20" />
              <mxPoint x="751" y="-20" />
            </Array>
          </mxGeometry>
        </mxCell>
        <mxCell id="cY8kMOldSic-Vgdh4lLR-251" value="&lt;font style=&quot;font-size: 15px;&quot;&gt;ifwrite&lt;/font&gt;" style="edgeLabel;html=1;align=center;verticalAlign=middle;resizable=0;points=[];" vertex="1" connectable="0" parent="cY8kMOldSic-Vgdh4lLR-250">
          <mxGeometry x="0.8313" y="-1" relative="1" as="geometry">
            <mxPoint as="offset" />
          </mxGeometry>
        </mxCell>
        <mxCell id="cY8kMOldSic-Vgdh4lLR-252" style="edgeStyle=orthogonalEdgeStyle;rounded=0;orthogonalLoop=1;jettySize=auto;html=1;entryX=0.25;entryY=0;entryDx=0;entryDy=0;endArrow=none;endFill=0;" edge="1" parent="1" source="cY8kMOldSic-Vgdh4lLR-237" target="cY8kMOldSic-Vgdh4lLR-219">
          <mxGeometry relative="1" as="geometry" />
        </mxCell>
        <mxCell id="cY8kMOldSic-Vgdh4lLR-253" value="&lt;span style=&quot;font-size: 15px;&quot;&gt;idflush&lt;/span&gt;" style="edgeLabel;html=1;align=center;verticalAlign=middle;resizable=0;points=[];" vertex="1" connectable="0" parent="cY8kMOldSic-Vgdh4lLR-252">
          <mxGeometry x="0.2226" relative="1" as="geometry">
            <mxPoint y="1" as="offset" />
          </mxGeometry>
        </mxCell>
        <mxCell id="cY8kMOldSic-Vgdh4lLR-237" value="&lt;font style=&quot;font-size: 18px;&quot;&gt;HazardDetection&lt;/font&gt;" style="rounded=1;whiteSpace=wrap;html=1;" vertex="1" parent="1">
          <mxGeometry x="1000" width="160" height="80" as="geometry" />
        </mxCell>
        <mxCell id="cY8kMOldSic-Vgdh4lLR-239" style="edgeStyle=orthogonalEdgeStyle;rounded=0;orthogonalLoop=1;jettySize=auto;html=1;entryX=0.039;entryY=0.483;entryDx=0;entryDy=0;entryPerimeter=0;" edge="1" parent="1" source="cY8kMOldSic-Vgdh4lLR-238" target="cY8kMOldSic-Vgdh4lLR-184">
          <mxGeometry relative="1" as="geometry" />
        </mxCell>
        <mxCell id="cY8kMOldSic-Vgdh4lLR-240" style="edgeStyle=orthogonalEdgeStyle;rounded=0;orthogonalLoop=1;jettySize=auto;html=1;entryX=0;entryY=0.75;entryDx=0;entryDy=0;" edge="1" parent="1" source="cY8kMOldSic-Vgdh4lLR-238" target="cY8kMOldSic-Vgdh4lLR-237">
          <mxGeometry relative="1" as="geometry">
            <mxPoint x="920" y="50" as="targetPoint" />
            <Array as="points">
              <mxPoint x="920" y="625" />
              <mxPoint x="921" y="625" />
              <mxPoint x="921" y="60" />
            </Array>
          </mxGeometry>
        </mxCell>
        <mxCell id="cY8kMOldSic-Vgdh4lLR-241" value="&lt;font style=&quot;font-size: 15px;&quot;&gt;ID_rw&lt;/font&gt;" style="edgeLabel;html=1;align=center;verticalAlign=middle;resizable=0;points=[];" vertex="1" connectable="0" parent="cY8kMOldSic-Vgdh4lLR-240">
          <mxGeometry x="0.9262" y="1" relative="1" as="geometry">
            <mxPoint as="offset" />
          </mxGeometry>
        </mxCell>
        <mxCell id="cY8kMOldSic-Vgdh4lLR-238" value="" style="shape=waypoint;sketch=0;fillStyle=solid;size=6;pointerEvents=1;points=[];fillColor=none;resizable=0;rotatable=0;perimeter=centerPerimeter;snapToPoint=1;" vertex="1" parent="1">
          <mxGeometry x="910" y="1190" width="20" height="20" as="geometry" />
        </mxCell>
        <mxCell id="cY8kMOldSic-Vgdh4lLR-245" value="" style="edgeStyle=orthogonalEdgeStyle;rounded=0;orthogonalLoop=1;jettySize=auto;html=1;entryDx=0;entryDy=0;endArrow=none;endFill=0;" edge="1" parent="1" source="cY8kMOldSic-Vgdh4lLR-328" target="cY8kMOldSic-Vgdh4lLR-246">
          <mxGeometry relative="1" as="geometry">
            <mxPoint x="1005" y="174" as="targetPoint" />
            <mxPoint x="827" y="760" as="sourcePoint" />
            <Array as="points" />
          </mxGeometry>
        </mxCell>
        <mxCell id="cY8kMOldSic-Vgdh4lLR-247" style="edgeStyle=orthogonalEdgeStyle;rounded=0;orthogonalLoop=1;jettySize=auto;html=1;entryX=0;entryY=0.25;entryDx=0;entryDy=0;" edge="1" parent="1" source="cY8kMOldSic-Vgdh4lLR-246" target="cY8kMOldSic-Vgdh4lLR-237">
          <mxGeometry relative="1" as="geometry">
            <mxPoint x="827" y="30" as="targetPoint" />
            <Array as="points">
              <mxPoint x="827" y="100" />
              <mxPoint x="828" y="100" />
              <mxPoint x="828" y="20" />
            </Array>
          </mxGeometry>
        </mxCell>
        <mxCell id="cY8kMOldSic-Vgdh4lLR-248" value="&lt;span style=&quot;font-size: 15px;&quot;&gt;ir&lt;/span&gt;" style="edgeLabel;html=1;align=center;verticalAlign=middle;resizable=0;points=[];" vertex="1" connectable="0" parent="cY8kMOldSic-Vgdh4lLR-247">
          <mxGeometry x="0.7744" y="2" relative="1" as="geometry">
            <mxPoint as="offset" />
          </mxGeometry>
        </mxCell>
        <mxCell id="cY8kMOldSic-Vgdh4lLR-246" value="" style="shape=waypoint;sketch=0;fillStyle=solid;size=6;pointerEvents=1;points=[];fillColor=none;resizable=0;rotatable=0;perimeter=centerPerimeter;snapToPoint=1;" vertex="1" parent="1">
          <mxGeometry x="817" y="165" width="20" height="20" as="geometry" />
        </mxCell>
        <mxCell id="cY8kMOldSic-Vgdh4lLR-267" style="edgeStyle=orthogonalEdgeStyle;rounded=0;orthogonalLoop=1;jettySize=auto;html=1;entryX=0;entryY=0.5;entryDx=0;entryDy=0;" edge="1" parent="1" source="cY8kMOldSic-Vgdh4lLR-358" target="cY8kMOldSic-Vgdh4lLR-268">
          <mxGeometry relative="1" as="geometry">
            <mxPoint x="2320" y="781.8800000000001" as="targetPoint" />
          </mxGeometry>
        </mxCell>
        <mxCell id="cY8kMOldSic-Vgdh4lLR-293" style="edgeStyle=orthogonalEdgeStyle;rounded=0;orthogonalLoop=1;jettySize=auto;html=1;exitX=0.25;exitY=0;exitDx=0;exitDy=0;entryX=0.75;entryY=1;entryDx=0;entryDy=0;" edge="1" parent="1" source="cY8kMOldSic-Vgdh4lLR-254" target="cY8kMOldSic-Vgdh4lLR-289">
          <mxGeometry relative="1" as="geometry" />
        </mxCell>
        <mxCell id="cY8kMOldSic-Vgdh4lLR-254" value="&lt;font style=&quot;font-size: 18px;&quot;&gt;ALU&amp;amp;シフタ&lt;/font&gt;" style="shape=trapezoid;perimeter=trapezoidPerimeter;whiteSpace=wrap;html=1;fixedSize=1;rotation=90;" vertex="1" parent="1">
          <mxGeometry x="1998.13" y="738.13" width="171.25" height="87.5" as="geometry" />
        </mxCell>
        <mxCell id="cY8kMOldSic-Vgdh4lLR-263" style="edgeStyle=orthogonalEdgeStyle;rounded=0;orthogonalLoop=1;jettySize=auto;html=1;entryX=0.25;entryY=1;entryDx=0;entryDy=0;" edge="1" parent="1" source="cY8kMOldSic-Vgdh4lLR-255" target="cY8kMOldSic-Vgdh4lLR-254">
          <mxGeometry relative="1" as="geometry" />
        </mxCell>
        <mxCell id="cY8kMOldSic-Vgdh4lLR-255" value="&lt;font style=&quot;font-size: 15px;&quot;&gt;MUX&lt;/font&gt;" style="ellipse;whiteSpace=wrap;html=1;" vertex="1" parent="1">
          <mxGeometry x="1920" y="695" width="40" height="80" as="geometry" />
        </mxCell>
        <mxCell id="cY8kMOldSic-Vgdh4lLR-262" style="edgeStyle=orthogonalEdgeStyle;rounded=0;orthogonalLoop=1;jettySize=auto;html=1;entryX=0.75;entryY=1;entryDx=0;entryDy=0;" edge="1" parent="1" source="cY8kMOldSic-Vgdh4lLR-256" target="cY8kMOldSic-Vgdh4lLR-254">
          <mxGeometry relative="1" as="geometry" />
        </mxCell>
        <mxCell id="cY8kMOldSic-Vgdh4lLR-256" value="&lt;font style=&quot;font-size: 15px;&quot;&gt;MUX&lt;/font&gt;" style="ellipse;whiteSpace=wrap;html=1;" vertex="1" parent="1">
          <mxGeometry x="1920" y="787.53" width="40" height="80" as="geometry" />
        </mxCell>
        <mxCell id="cY8kMOldSic-Vgdh4lLR-268" value="&lt;font style=&quot;font-size: 16px;&quot;&gt;dr&lt;/font&gt;" style="rounded=0;whiteSpace=wrap;html=1;" vertex="1" parent="1">
          <mxGeometry x="2481" y="760" width="40" height="40" as="geometry" />
        </mxCell>
        <mxCell id="cY8kMOldSic-Vgdh4lLR-281" style="edgeStyle=orthogonalEdgeStyle;rounded=0;orthogonalLoop=1;jettySize=auto;html=1;exitDx=0;exitDy=0;endArrow=none;endFill=0;" edge="1" parent="1" source="cY8kMOldSic-Vgdh4lLR-283">
          <mxGeometry relative="1" as="geometry">
            <mxPoint x="320" y="580.0476190476188" as="targetPoint" />
          </mxGeometry>
        </mxCell>
        <mxCell id="cY8kMOldSic-Vgdh4lLR-284" style="edgeStyle=orthogonalEdgeStyle;rounded=0;orthogonalLoop=1;jettySize=auto;html=1;" edge="1" parent="1" source="cY8kMOldSic-Vgdh4lLR-280">
          <mxGeometry relative="1" as="geometry">
            <mxPoint x="1602.857142857143" y="580" as="targetPoint" />
          </mxGeometry>
        </mxCell>
        <mxCell id="cY8kMOldSic-Vgdh4lLR-280" value="&lt;span style=&quot;font-size: 18px;&quot;&gt;wa&lt;br&gt;&lt;/span&gt;" style="rounded=0;whiteSpace=wrap;html=1;strokeColor=#FF3333;" vertex="1" parent="1">
          <mxGeometry x="720" y="560" width="40" height="40" as="geometry" />
        </mxCell>
        <mxCell id="cY8kMOldSic-Vgdh4lLR-282" value="" style="edgeStyle=orthogonalEdgeStyle;rounded=0;orthogonalLoop=1;jettySize=auto;html=1;exitX=0;exitY=0.5;exitDx=0;exitDy=0;endArrow=none;endFill=0;" edge="1" parent="1" source="cY8kMOldSic-Vgdh4lLR-280" target="cY8kMOldSic-Vgdh4lLR-283">
          <mxGeometry relative="1" as="geometry">
            <mxPoint x="320" y="580.0476190476188" as="targetPoint" />
            <mxPoint x="720" y="580" as="sourcePoint" />
          </mxGeometry>
        </mxCell>
        <mxCell id="cY8kMOldSic-Vgdh4lLR-283" value="" style="shape=waypoint;sketch=0;fillStyle=solid;size=6;pointerEvents=1;points=[];fillColor=none;resizable=0;rotatable=0;perimeter=centerPerimeter;snapToPoint=1;" vertex="1" parent="1">
          <mxGeometry x="310" y="570" width="20" height="20" as="geometry" />
        </mxCell>
        <mxCell id="cY8kMOldSic-Vgdh4lLR-287" style="edgeStyle=orthogonalEdgeStyle;rounded=0;orthogonalLoop=1;jettySize=auto;html=1;endArrow=none;endFill=0;" edge="1" parent="1" source="cY8kMOldSic-Vgdh4lLR-285">
          <mxGeometry relative="1" as="geometry">
            <mxPoint x="1750" y="-80" as="targetPoint" />
          </mxGeometry>
        </mxCell>
        <mxCell id="cY8kMOldSic-Vgdh4lLR-285" value="&lt;span style=&quot;font-size: 16px;&quot;&gt;wa&lt;/span&gt;" style="rounded=0;whiteSpace=wrap;html=1;" vertex="1" parent="1">
          <mxGeometry x="1600" y="560" width="40" height="40" as="geometry" />
        </mxCell>
        <mxCell id="cY8kMOldSic-Vgdh4lLR-350" style="edgeStyle=orthogonalEdgeStyle;rounded=0;orthogonalLoop=1;jettySize=auto;html=1;exitX=0;exitY=0.5;exitDx=0;exitDy=0;endArrow=none;endFill=0;startArrow=classic;startFill=1;" edge="1" parent="1" source="cY8kMOldSic-Vgdh4lLR-289" target="cY8kMOldSic-Vgdh4lLR-354">
          <mxGeometry relative="1" as="geometry">
            <mxPoint x="2000" y="503.8888888888887" as="targetPoint" />
          </mxGeometry>
        </mxCell>
        <mxCell id="cY8kMOldSic-Vgdh4lLR-289" value="&lt;font style=&quot;font-size: 18px;&quot;&gt;Branch&lt;/font&gt;" style="rounded=1;whiteSpace=wrap;html=1;" vertex="1" parent="1">
          <mxGeometry x="2200" y="460" width="80" height="87.5" as="geometry" />
        </mxCell>
        <mxCell id="cY8kMOldSic-Vgdh4lLR-292" style="edgeStyle=orthogonalEdgeStyle;rounded=0;orthogonalLoop=1;jettySize=auto;html=1;entryX=0.25;entryY=1;entryDx=0;entryDy=0;" edge="1" parent="1" source="cY8kMOldSic-Vgdh4lLR-291" target="cY8kMOldSic-Vgdh4lLR-289">
          <mxGeometry relative="1" as="geometry" />
        </mxCell>
        <mxCell id="cY8kMOldSic-Vgdh4lLR-291" value="" style="shape=waypoint;sketch=0;fillStyle=solid;size=6;pointerEvents=1;points=[];fillColor=none;resizable=0;rotatable=0;perimeter=centerPerimeter;snapToPoint=1;" vertex="1" parent="1">
          <mxGeometry x="2074" y="1060" width="20" height="20" as="geometry" />
        </mxCell>
        <mxCell id="cY8kMOldSic-Vgdh4lLR-295" style="edgeStyle=orthogonalEdgeStyle;rounded=0;orthogonalLoop=1;jettySize=auto;html=1;" edge="1" parent="1" source="cY8kMOldSic-Vgdh4lLR-294">
          <mxGeometry relative="1" as="geometry">
            <mxPoint x="1603.8095238095239" y="480" as="targetPoint" />
          </mxGeometry>
        </mxCell>
        <mxCell id="cY8kMOldSic-Vgdh4lLR-294" value="" style="shape=waypoint;sketch=0;fillStyle=solid;size=6;pointerEvents=1;points=[];fillColor=none;resizable=0;rotatable=0;perimeter=centerPerimeter;snapToPoint=1;" vertex="1" parent="1">
          <mxGeometry x="817" y="470" width="20" height="20" as="geometry" />
        </mxCell>
        <mxCell id="cY8kMOldSic-Vgdh4lLR-297" style="edgeStyle=orthogonalEdgeStyle;rounded=0;orthogonalLoop=1;jettySize=auto;html=1;entryX=0;entryY=0.25;entryDx=0;entryDy=0;" edge="1" parent="1" source="cY8kMOldSic-Vgdh4lLR-296" target="cY8kMOldSic-Vgdh4lLR-289">
          <mxGeometry relative="1" as="geometry">
            <Array as="points">
              <mxPoint x="1780" y="482" />
              <mxPoint x="1780" y="482" />
            </Array>
          </mxGeometry>
        </mxCell>
        <mxCell id="cY8kMOldSic-Vgdh4lLR-296" value="&lt;span style=&quot;font-size: 16px;&quot;&gt;cond&lt;/span&gt;" style="rounded=0;whiteSpace=wrap;html=1;" vertex="1" parent="1">
          <mxGeometry x="1600" y="460" width="40" height="40" as="geometry" />
        </mxCell>
        <mxCell id="cY8kMOldSic-Vgdh4lLR-306" style="edgeStyle=orthogonalEdgeStyle;rounded=0;orthogonalLoop=1;jettySize=auto;html=1;endArrow=none;endFill=0;" edge="1" parent="1" source="cY8kMOldSic-Vgdh4lLR-301">
          <mxGeometry relative="1" as="geometry">
            <mxPoint x="40" y="444.44444444444446" as="targetPoint" />
            <Array as="points">
              <mxPoint x="2001" y="620" />
              <mxPoint x="2001" y="-270" />
            </Array>
          </mxGeometry>
        </mxCell>
        <mxCell id="cY8kMOldSic-Vgdh4lLR-307" value="&lt;font style=&quot;font-size: 16px;&quot;&gt;rpc&lt;/font&gt;" style="edgeLabel;html=1;align=center;verticalAlign=middle;resizable=0;points=[];" vertex="1" connectable="0" parent="cY8kMOldSic-Vgdh4lLR-306">
          <mxGeometry x="-0.9579" y="-4" relative="1" as="geometry">
            <mxPoint as="offset" />
          </mxGeometry>
        </mxCell>
        <mxCell id="cY8kMOldSic-Vgdh4lLR-301" value="&lt;font style=&quot;font-size: 16px;&quot;&gt;1&lt;br&gt;&lt;br&gt;0&lt;/font&gt;" style="ellipse;whiteSpace=wrap;html=1;" vertex="1" parent="1">
          <mxGeometry x="1920" y="580" width="40" height="80" as="geometry" />
        </mxCell>
        <mxCell id="cY8kMOldSic-Vgdh4lLR-303" value="" style="edgeStyle=orthogonalEdgeStyle;rounded=0;orthogonalLoop=1;jettySize=auto;html=1;entryDx=0;entryDy=0;endArrow=none;endFill=0;startArrow=classic;startFill=1;" edge="1" parent="1" source="cY8kMOldSic-Vgdh4lLR-25" target="cY8kMOldSic-Vgdh4lLR-304">
          <mxGeometry relative="1" as="geometry">
            <mxPoint x="1640" y="720" as="targetPoint" />
            <mxPoint x="400" y="295" as="sourcePoint" />
            <Array as="points">
              <mxPoint x="301" y="295" />
              <mxPoint x="301" y="-220" />
              <mxPoint x="1720" y="-220" />
            </Array>
          </mxGeometry>
        </mxCell>
        <mxCell id="cY8kMOldSic-Vgdh4lLR-305" style="edgeStyle=orthogonalEdgeStyle;rounded=0;orthogonalLoop=1;jettySize=auto;html=1;entryX=0.061;entryY=0.243;entryDx=0;entryDy=0;entryPerimeter=0;" edge="1" parent="1" source="cY8kMOldSic-Vgdh4lLR-304" target="cY8kMOldSic-Vgdh4lLR-301">
          <mxGeometry relative="1" as="geometry" />
        </mxCell>
        <mxCell id="cY8kMOldSic-Vgdh4lLR-304" value="" style="shape=waypoint;sketch=0;fillStyle=solid;size=6;pointerEvents=1;points=[];fillColor=none;resizable=0;rotatable=0;perimeter=centerPerimeter;snapToPoint=1;" vertex="1" parent="1">
          <mxGeometry x="1710" y="590" width="20" height="20" as="geometry" />
        </mxCell>
        <mxCell id="cY8kMOldSic-Vgdh4lLR-311" value="" style="edgeStyle=orthogonalEdgeStyle;rounded=0;orthogonalLoop=1;jettySize=auto;html=1;entryDx=0;entryDy=0;endArrow=none;endFill=0;" edge="1" parent="1" source="cY8kMOldSic-Vgdh4lLR-89" target="cY8kMOldSic-Vgdh4lLR-313">
          <mxGeometry relative="1" as="geometry">
            <mxPoint x="2220" y="460" as="targetPoint" />
            <mxPoint x="370" y="355" as="sourcePoint" />
            <Array as="points">
              <mxPoint x="370" y="-120" />
              <mxPoint x="2220" y="-120" />
            </Array>
          </mxGeometry>
        </mxCell>
        <mxCell id="cY8kMOldSic-Vgdh4lLR-314" style="edgeStyle=orthogonalEdgeStyle;rounded=0;orthogonalLoop=1;jettySize=auto;html=1;entryX=0.5;entryY=0;entryDx=0;entryDy=0;endArrow=none;endFill=0;" edge="1" parent="1" source="cY8kMOldSic-Vgdh4lLR-313" target="cY8kMOldSic-Vgdh4lLR-301">
          <mxGeometry relative="1" as="geometry" />
        </mxCell>
        <mxCell id="cY8kMOldSic-Vgdh4lLR-313" value="" style="shape=waypoint;sketch=0;fillStyle=solid;size=6;pointerEvents=1;points=[];fillColor=none;resizable=0;rotatable=0;perimeter=centerPerimeter;snapToPoint=1;" vertex="1" parent="1">
          <mxGeometry x="2210" y="365" width="20" height="20" as="geometry" />
        </mxCell>
        <mxCell id="cY8kMOldSic-Vgdh4lLR-315" value="&lt;font style=&quot;font-size: 18px;&quot;&gt;mem&lt;br&gt;to&lt;br&gt;reg&lt;br&gt;&lt;/font&gt;" style="rounded=0;whiteSpace=wrap;html=1;" vertex="1" parent="1">
          <mxGeometry x="2481" y="180" width="40" height="60" as="geometry" />
        </mxCell>
        <mxCell id="cY8kMOldSic-Vgdh4lLR-316" value="&lt;font style=&quot;font-size: 18px;&quot;&gt;mem&lt;br&gt;write&lt;br&gt;&lt;/font&gt;" style="rounded=0;whiteSpace=wrap;html=1;" vertex="1" parent="1">
          <mxGeometry x="2481" y="240" width="40" height="60" as="geometry" />
        </mxCell>
        <mxCell id="cY8kMOldSic-Vgdh4lLR-317" value="&lt;font style=&quot;font-size: 18px;&quot;&gt;mem&lt;br&gt;read&lt;br&gt;&lt;/font&gt;" style="rounded=0;whiteSpace=wrap;html=1;" vertex="1" parent="1">
          <mxGeometry x="2481" y="300" width="40" height="60" as="geometry" />
        </mxCell>
        <mxCell id="cY8kMOldSic-Vgdh4lLR-318" value="&lt;font style=&quot;font-size: 18px;&quot;&gt;reg&lt;br&gt;write&lt;br&gt;&lt;/font&gt;" style="rounded=0;whiteSpace=wrap;html=1;" vertex="1" parent="1">
          <mxGeometry x="2481" y="120" width="40" height="60" as="geometry" />
        </mxCell>
        <mxCell id="cY8kMOldSic-Vgdh4lLR-323" value="" style="endArrow=none;html=1;rounded=0;" edge="1" parent="1">
          <mxGeometry width="50" height="50" relative="1" as="geometry">
            <mxPoint x="1110" as="sourcePoint" />
            <mxPoint x="1110" y="-40" as="targetPoint" />
          </mxGeometry>
        </mxCell>
        <mxCell id="cY8kMOldSic-Vgdh4lLR-324" value="&lt;font style=&quot;font-size: 16px;&quot;&gt;ID_memread&lt;/font&gt;" style="text;html=1;align=center;verticalAlign=middle;resizable=0;points=[];autosize=1;strokeColor=none;fillColor=none;" vertex="1" parent="1">
          <mxGeometry x="1050" y="-70" width="120" height="30" as="geometry" />
        </mxCell>
        <mxCell id="cY8kMOldSic-Vgdh4lLR-330" style="edgeStyle=orthogonalEdgeStyle;rounded=0;orthogonalLoop=1;jettySize=auto;html=1;exitX=1;exitY=0.5;exitDx=0;exitDy=0;entryX=0;entryY=0.5;entryDx=0;entryDy=0;" edge="1" parent="1" source="cY8kMOldSic-Vgdh4lLR-326" target="cY8kMOldSic-Vgdh4lLR-254">
          <mxGeometry relative="1" as="geometry" />
        </mxCell>
        <mxCell id="cY8kMOldSic-Vgdh4lLR-326" value="&lt;span style=&quot;font-size: 16px;&quot;&gt;d&lt;/span&gt;" style="rounded=0;whiteSpace=wrap;html=1;" vertex="1" parent="1">
          <mxGeometry x="1600" y="420" width="40" height="40" as="geometry" />
        </mxCell>
        <mxCell id="cY8kMOldSic-Vgdh4lLR-327" value="" style="edgeStyle=orthogonalEdgeStyle;rounded=0;orthogonalLoop=1;jettySize=auto;html=1;entryDx=0;entryDy=0;endArrow=none;endFill=0;" edge="1" parent="1" source="cY8kMOldSic-Vgdh4lLR-158" target="cY8kMOldSic-Vgdh4lLR-328">
          <mxGeometry relative="1" as="geometry">
            <mxPoint x="827" y="175" as="targetPoint" />
            <mxPoint x="827" y="760" as="sourcePoint" />
            <Array as="points" />
          </mxGeometry>
        </mxCell>
        <mxCell id="cY8kMOldSic-Vgdh4lLR-329" value="&lt;font style=&quot;font-size: 15px;&quot;&gt;ir[3:0]&lt;/font&gt;" style="edgeStyle=orthogonalEdgeStyle;rounded=0;orthogonalLoop=1;jettySize=auto;html=1;entryX=0;entryY=0.5;entryDx=0;entryDy=0;" edge="1" parent="1" source="cY8kMOldSic-Vgdh4lLR-328" target="cY8kMOldSic-Vgdh4lLR-326">
          <mxGeometry relative="1" as="geometry" />
        </mxCell>
        <mxCell id="cY8kMOldSic-Vgdh4lLR-328" value="" style="shape=waypoint;sketch=0;fillStyle=solid;size=6;pointerEvents=1;points=[];fillColor=none;resizable=0;rotatable=0;perimeter=centerPerimeter;snapToPoint=1;" vertex="1" parent="1">
          <mxGeometry x="817" y="430" width="20" height="20" as="geometry" />
        </mxCell>
        <mxCell id="cY8kMOldSic-Vgdh4lLR-331" value="" style="endArrow=classic;html=1;rounded=0;entryX=0;entryY=0;entryDx=0;entryDy=0;" edge="1" parent="1" target="cY8kMOldSic-Vgdh4lLR-255">
          <mxGeometry width="50" height="50" relative="1" as="geometry">
            <mxPoint x="1820" y="707" as="sourcePoint" />
            <mxPoint x="1850" y="660" as="targetPoint" />
          </mxGeometry>
        </mxCell>
        <mxCell id="cY8kMOldSic-Vgdh4lLR-332" value="&lt;font style=&quot;font-size: 16px;&quot;&gt;EX_dr&lt;/font&gt;" style="text;html=1;align=center;verticalAlign=middle;resizable=0;points=[];autosize=1;strokeColor=none;fillColor=none;" vertex="1" parent="1">
          <mxGeometry x="1760" y="690" width="70" height="30" as="geometry" />
        </mxCell>
        <mxCell id="cY8kMOldSic-Vgdh4lLR-335" value="" style="edgeStyle=orthogonalEdgeStyle;rounded=0;orthogonalLoop=1;jettySize=auto;html=1;entryDx=0;entryDy=0;entryPerimeter=0;endArrow=none;endFill=0;" edge="1" parent="1" source="cY8kMOldSic-Vgdh4lLR-122" target="cY8kMOldSic-Vgdh4lLR-336">
          <mxGeometry relative="1" as="geometry">
            <mxPoint x="1115" y="803" as="sourcePoint" />
            <mxPoint x="1284" y="802" as="targetPoint" />
          </mxGeometry>
        </mxCell>
        <mxCell id="cY8kMOldSic-Vgdh4lLR-337" style="edgeStyle=orthogonalEdgeStyle;rounded=0;orthogonalLoop=1;jettySize=auto;html=1;" edge="1" parent="1" source="cY8kMOldSic-Vgdh4lLR-336">
          <mxGeometry relative="1" as="geometry">
            <mxPoint x="1600" y="880" as="targetPoint" />
            <Array as="points">
              <mxPoint x="1160" y="841" />
              <mxPoint x="1161" y="880" />
            </Array>
          </mxGeometry>
        </mxCell>
        <mxCell id="cY8kMOldSic-Vgdh4lLR-336" value="" style="shape=waypoint;sketch=0;fillStyle=solid;size=6;pointerEvents=1;points=[];fillColor=none;resizable=0;rotatable=0;perimeter=centerPerimeter;snapToPoint=1;" vertex="1" parent="1">
          <mxGeometry x="1150" y="792.53" width="20" height="20" as="geometry" />
        </mxCell>
        <mxCell id="cY8kMOldSic-Vgdh4lLR-340" style="edgeStyle=orthogonalEdgeStyle;rounded=0;orthogonalLoop=1;jettySize=auto;html=1;exitX=1;exitY=0.75;exitDx=0;exitDy=0;" edge="1" parent="1" source="cY8kMOldSic-Vgdh4lLR-338">
          <mxGeometry relative="1" as="geometry">
            <mxPoint x="2482.222222222222" y="895" as="targetPoint" />
          </mxGeometry>
        </mxCell>
        <mxCell id="cY8kMOldSic-Vgdh4lLR-338" value="&lt;font style=&quot;font-size: 16px;&quot;&gt;mem&lt;br&gt;write&lt;br&gt;_data&lt;/font&gt;" style="rounded=0;whiteSpace=wrap;html=1;" vertex="1" parent="1">
          <mxGeometry x="1600" y="820" width="40" height="100" as="geometry" />
        </mxCell>
        <mxCell id="cY8kMOldSic-Vgdh4lLR-341" value="&lt;font style=&quot;font-size: 16px;&quot;&gt;mem&lt;br&gt;write&lt;br&gt;_data&lt;/font&gt;" style="rounded=0;whiteSpace=wrap;html=1;" vertex="1" parent="1">
          <mxGeometry x="2481" y="817.53" width="40" height="100" as="geometry" />
        </mxCell>
        <mxCell id="cY8kMOldSic-Vgdh4lLR-342" value="" style="edgeStyle=orthogonalEdgeStyle;rounded=0;orthogonalLoop=1;jettySize=auto;html=1;endArrow=none;endFill=0;" edge="1" parent="1" source="cY8kMOldSic-Vgdh4lLR-173" target="cY8kMOldSic-Vgdh4lLR-343">
          <mxGeometry relative="1" as="geometry">
            <mxPoint x="920" y="1200" as="targetPoint" />
            <mxPoint x="1640" y="940" as="sourcePoint" />
            <Array as="points" />
          </mxGeometry>
        </mxCell>
        <mxCell id="cY8kMOldSic-Vgdh4lLR-344" style="edgeStyle=orthogonalEdgeStyle;rounded=0;orthogonalLoop=1;jettySize=auto;html=1;entryX=0;entryY=0.5;entryDx=0;entryDy=0;" edge="1" parent="1" source="cY8kMOldSic-Vgdh4lLR-343" target="cY8kMOldSic-Vgdh4lLR-345">
          <mxGeometry relative="1" as="geometry">
            <mxPoint x="2470" y="940" as="targetPoint" />
          </mxGeometry>
        </mxCell>
        <mxCell id="cY8kMOldSic-Vgdh4lLR-343" value="" style="shape=waypoint;sketch=0;fillStyle=solid;size=6;pointerEvents=1;points=[];fillColor=none;resizable=0;rotatable=0;perimeter=centerPerimeter;snapToPoint=1;" vertex="1" parent="1">
          <mxGeometry x="1690" y="930" width="20" height="20" as="geometry" />
        </mxCell>
        <mxCell id="cY8kMOldSic-Vgdh4lLR-345" value="&lt;font style=&quot;font-size: 16px;&quot;&gt;rw&lt;/font&gt;" style="rounded=0;whiteSpace=wrap;html=1;" vertex="1" parent="1">
          <mxGeometry x="2481" y="920" width="40" height="40" as="geometry" />
        </mxCell>
        <mxCell id="cY8kMOldSic-Vgdh4lLR-354" value="" style="shape=waypoint;sketch=0;fillStyle=solid;size=6;pointerEvents=1;points=[];fillColor=none;resizable=0;rotatable=0;perimeter=centerPerimeter;snapToPoint=1;" vertex="1" parent="1">
          <mxGeometry x="1990" y="493.8888888888887" width="20" height="20" as="geometry" />
        </mxCell>
        <mxCell id="cY8kMOldSic-Vgdh4lLR-355" value="&lt;font style=&quot;font-size: 18px;&quot;&gt;SZCV&lt;/font&gt;" style="rounded=0;whiteSpace=wrap;html=1;" vertex="1" parent="1">
          <mxGeometry x="2230" y="615" width="80" height="45" as="geometry" />
        </mxCell>
        <mxCell id="cY8kMOldSic-Vgdh4lLR-356" value="&lt;span style=&quot;font-size: 16px;&quot;&gt;ex_&lt;br&gt;out&lt;/span&gt;" style="rounded=0;whiteSpace=wrap;html=1;" vertex="1" parent="1">
          <mxGeometry x="2481" y="680" width="40" height="80" as="geometry" />
        </mxCell>
        <mxCell id="cY8kMOldSic-Vgdh4lLR-357" value="" style="edgeStyle=orthogonalEdgeStyle;rounded=0;orthogonalLoop=1;jettySize=auto;html=1;entryDx=0;entryDy=0;endArrow=none;endFill=0;" edge="1" parent="1" source="cY8kMOldSic-Vgdh4lLR-254" target="cY8kMOldSic-Vgdh4lLR-358">
          <mxGeometry relative="1" as="geometry">
            <mxPoint x="2481" y="780" as="targetPoint" />
            <mxPoint x="2128" y="782" as="sourcePoint" />
          </mxGeometry>
        </mxCell>
        <mxCell id="cY8kMOldSic-Vgdh4lLR-359" style="edgeStyle=orthogonalEdgeStyle;rounded=0;orthogonalLoop=1;jettySize=auto;html=1;entryX=0;entryY=0.5;entryDx=0;entryDy=0;" edge="1" parent="1" source="cY8kMOldSic-Vgdh4lLR-358" target="cY8kMOldSic-Vgdh4lLR-356">
          <mxGeometry relative="1" as="geometry">
            <Array as="points">
              <mxPoint x="2390" y="720" />
            </Array>
          </mxGeometry>
        </mxCell>
        <mxCell id="cY8kMOldSic-Vgdh4lLR-358" value="" style="shape=waypoint;sketch=0;fillStyle=solid;size=6;pointerEvents=1;points=[];fillColor=none;resizable=0;rotatable=0;perimeter=centerPerimeter;snapToPoint=1;" vertex="1" parent="1">
          <mxGeometry x="2380" y="768" width="20" height="20" as="geometry" />
        </mxCell>
      </root>
    </mxGraphModel>
  </diagram>
</mxfile>
